<svg width="70" height="70" viewBox="0 0 70 70" fill="none" xmlns="http://www.w3.org/2000/svg">
<path d="M27.9521 70C25.5014 70 23.1676 68.8114 21.6172 66.8332C20.4575 67.4509 19.2215 67.7632 17.929 67.7632C14.32 67.7632 11.1594 65.2099 10.0816 61.5603C5.75922 61.3003 2.31593 57.4127 2.31593 52.6694C2.31593 52.3323 2.33381 51.9925 2.36889 51.6528C0.837095 49.9813 0 47.7858 0 45.4017C0 42.6917 1.14937 40.1426 3.0581 38.4945C2.37922 37.1629 2.03598 35.7171 2.03598 34.1811C2.03598 31.1849 3.488 28.3772 5.81012 26.7436C5.45588 25.7339 5.27086 24.678 5.27086 23.6394C5.27086 19.5282 7.86605 16.0107 11.4675 15.0092C11.4627 14.8909 11.46 14.7726 11.46 14.655C11.46 9.74452 15.1681 5.74959 19.7263 5.74959C19.8928 5.74959 20.0551 5.75509 20.2126 5.76472C21.3875 2.32006 24.4346 0 27.9521 0C32.4877 0 36.1779 3.97704 36.1779 8.86478C36.1779 9.52647 35.6414 10.063 34.9797 10.063C34.318 10.063 33.7815 9.52647 33.7815 8.86478C33.7815 5.29768 31.1664 2.3964 27.9521 2.3964C25.2166 2.3964 22.8739 4.43582 22.2555 7.35636C22.1867 7.67896 21.9886 7.95959 21.7066 8.13086C21.4253 8.30213 21.0862 8.35028 20.7663 8.26361C20.4864 8.18658 20.1267 8.14599 19.7263 8.14599C16.4894 8.14599 13.8564 11.0658 13.8564 14.6549C13.8564 15.058 13.8942 15.4611 13.9307 15.8648C13.9891 16.508 13.5276 17.0816 12.8865 17.1614C9.91097 17.5328 7.66726 20.3179 7.66726 23.6394C7.66726 24.6725 7.91626 25.7352 8.38673 26.7133C8.66806 27.298 8.43351 28.0003 7.8571 28.2974C5.77641 29.3725 4.43239 31.6815 4.43239 34.1811C4.43239 35.6228 4.83477 36.9579 5.62852 38.1492C5.80736 38.4175 5.87064 38.7463 5.80392 39.0627C5.73721 39.3777 5.54599 39.6528 5.2736 39.8248C3.49831 40.9515 2.3964 43.0879 2.3964 45.4017C2.3964 47.3414 3.12826 49.1023 4.45783 50.3624C4.74672 50.6361 4.88085 51.0365 4.8155 51.4285C4.74672 51.8398 4.71233 52.258 4.71233 52.6694C4.71302 56.2956 7.388 59.2093 10.6408 59.179C10.6724 59.179 10.7047 59.1776 10.7364 59.1721C11.3871 59.0621 12.0831 59.4748 12.2001 60.1241C12.7462 63.1616 15.1557 65.3668 17.929 65.3668C19.1038 65.3668 20.225 64.9871 21.2595 64.2373C21.5353 64.0379 21.8813 63.9663 22.2142 64.0365C22.5464 64.1066 22.8326 64.3157 23.0018 64.6115C24.0604 66.4576 25.9574 67.6036 27.9521 67.6036C31.1664 67.6036 33.7815 64.6844 33.7815 61.0953C33.7815 60.4336 34.318 59.8971 34.9797 59.8971C35.6414 59.8971 36.1779 60.4336 36.1779 61.0953C36.1779 66.0051 32.4877 70 27.9521 70Z" fill="#6F283B"/>
<path d="M34.9797 62.2935C34.318 62.2935 33.7815 61.757 33.7815 61.0953L33.7815 8.86478C33.7815 8.20308 34.318 7.66657 34.9797 7.66657C35.6414 7.66657 36.1779 8.20308 36.1779 8.86478L36.1779 61.0953C36.1779 61.757 35.6414 62.2935 34.9797 62.2935Z" fill="#6F283B"/>
<path d="M16.8526 30.5074C16.4605 30.5074 16.0767 30.3155 15.847 29.962C14.1349 27.3296 10.5933 26.5558 7.95133 28.2438C7.3935 28.598 6.65339 28.4357 6.29709 27.8771C5.94149 27.3193 6.10588 26.5792 6.66371 26.2229C10.4083 23.8341 15.4294 24.9257 17.8554 28.6565C18.2159 29.2109 18.059 29.953 17.5039 30.3135C17.3024 30.4448 17.0761 30.5074 16.8526 30.5074Z" fill="#6F283B"/>
<path d="M11.0198 61.5342C10.431 61.5342 9.91716 61.0994 9.83462 60.4997C9.74382 59.8448 10.2019 59.2395 10.8574 59.1488C12.3521 58.9424 13.6824 58.1569 14.6013 56.9353C15.5202 55.7137 15.9116 54.2142 15.7046 52.7134C15.6138 52.0586 16.0719 51.4533 16.7274 51.3625C17.3788 51.2772 17.9875 51.7312 18.0776 52.386C18.3727 54.5183 17.8176 56.645 16.5155 58.3756C15.21 60.1103 13.3171 61.2274 11.1848 61.5231C11.1298 61.53 11.0741 61.5342 11.0198 61.5342Z" fill="#6F283B"/>
<path d="M34.9797 39.6515C34.4824 39.6515 34.0174 39.3392 33.8468 38.8426C33.084 36.6209 31.0226 35.0843 28.717 35.0189C28.0553 35.0003 27.5346 34.4487 27.5532 33.7877C27.5724 33.1267 28.1654 32.6521 28.7844 32.6239C32.0832 32.7174 35.0279 34.904 36.1126 38.0639C36.3279 38.6899 35.9943 39.3708 35.3683 39.5868C35.2397 39.6308 35.1083 39.6515 34.9797 39.6515Z" fill="#6F283B"/>
<path d="M24.158 47.3579C17.3348 47.3579 11.6897 42.2584 11.0266 35.4963C10.962 34.838 11.4435 34.252 12.1017 34.1873C12.7572 34.1165 13.3467 34.6042 13.4107 35.2624C13.9534 40.7919 18.5735 44.9615 24.158 44.9615C24.8197 44.9615 25.3562 45.498 25.3562 46.1597C25.3562 46.8214 24.8197 47.3579 24.158 47.3579Z" fill="#6F283B"/>
<path d="M9.90272 46.2409C9.59594 46.2409 9.28918 46.124 9.05531 45.8901C8.58759 45.421 8.58759 44.663 9.056 44.1953C10.9792 42.2735 13.7257 41.4302 16.3993 41.9488C17.0486 42.074 17.4737 42.7027 17.3485 43.352C17.2233 44.0013 16.6008 44.4333 15.9453 44.3012C14.0517 43.9394 12.11 44.5296 10.7494 45.8901C10.5156 46.124 10.2095 46.2409 9.90272 46.2409Z" fill="#6F283B"/>
<path d="M28.8704 62.4132C28.2087 62.4132 27.6722 61.8767 27.6722 61.215C27.6722 58.9699 26.9561 56.7193 25.6555 54.8773C25.2744 54.3367 25.403 53.5897 25.943 53.2086C26.4857 52.8262 27.2306 52.9541 27.613 53.4962C29.1964 55.7385 30.0686 58.4802 30.0686 61.215C30.0686 61.8767 29.5321 62.4132 28.8704 62.4132Z" fill="#6F283B"/>
<path d="M25.7573 11.6202C25.3446 11.6202 24.9429 11.407 24.7207 11.0246C23.8919 9.60076 22.4515 8.57727 20.8675 8.28631C20.2168 8.16663 19.7855 7.54277 19.9052 6.89207C20.0242 6.24138 20.6494 5.80255 21.2994 5.9298C23.5968 6.35144 25.5984 7.76906 26.7911 9.81949C27.124 10.3918 26.93 11.125 26.3584 11.4572C26.1686 11.568 25.9615 11.6202 25.7573 11.6202Z" fill="#6F283B"/>
<path d="M28.4701 26.2752C28.3043 26.2752 28.1358 26.2408 27.9748 26.1672C24.1051 24.4084 21.2987 20.8792 20.4678 16.7267C20.3385 16.0774 20.7588 15.4466 21.4074 15.3166C22.0622 15.1915 22.6875 15.6083 22.8175 16.2562C23.497 19.6555 25.7958 22.5451 28.9667 23.9868C29.5685 24.2605 29.8354 24.9704 29.561 25.5729C29.3608 26.0145 28.9254 26.2752 28.4701 26.2752Z" fill="#6F283B"/>
<path d="M24.3967 31.0267C23.8162 31.0267 23.3065 30.6037 23.2143 30.0122C22.8202 27.4761 23.1689 24.8837 24.2213 22.5141C24.4903 21.9088 25.198 21.6371 25.8027 21.9054C26.4073 22.1743 26.6796 22.8821 26.4114 23.4867C25.5454 25.4347 25.2586 27.5642 25.5819 29.6449C25.6837 30.2983 25.2359 30.9105 24.5817 31.0123C24.5198 31.0219 24.4579 31.0267 24.3967 31.0267Z" fill="#6F283B"/>
<path d="M42.0479 70C37.4903 70 33.7815 66.0051 33.7815 61.0953C33.7815 60.4336 34.318 59.8971 34.9797 59.8971C35.6414 59.8971 36.1779 60.4336 36.1779 61.0953C36.1779 64.6844 38.8109 67.6036 42.0479 67.6036C44.0426 67.6036 45.9383 66.4577 46.9989 64.6115C47.1695 64.313 47.4597 64.1025 47.7954 64.0337C48.1338 63.9663 48.4832 64.042 48.757 64.2484C49.7172 64.9706 50.8796 65.3668 52.0297 65.3668C54.8264 65.3668 57.2531 63.1616 57.7992 60.1241C57.8584 59.7981 58.0496 59.5106 58.3275 59.3303C58.6067 59.1501 58.952 59.0965 59.2684 59.1735C59.3262 59.1845 59.3909 59.1776 59.4569 59.1776C62.6718 59.1776 65.287 56.2585 65.287 52.6694C65.287 52.2581 65.2526 51.8399 65.1838 51.4285C65.1191 51.042 65.2485 50.6471 65.5305 50.3734C66.8484 49.0913 67.6036 47.2795 67.6036 45.4017C67.6036 43.103 66.4852 40.9666 64.6858 39.8262C64.4134 39.6528 64.2222 39.3777 64.1548 39.0627C64.0888 38.7463 64.1507 38.4175 64.3309 38.1492C65.1508 36.9194 65.5662 35.5843 65.5662 34.1811C65.5662 31.6815 64.2222 29.3725 62.1422 28.2974C61.5672 28.0003 61.3319 27.2987 61.6126 26.714C62.083 25.7352 62.332 24.6718 62.332 23.6394C62.332 20.3165 60.0718 17.5321 57.0743 17.1614C56.7482 17.1215 56.4511 16.9482 56.2571 16.6827C56.0618 16.4172 55.9834 16.0829 56.0425 15.7589C56.1099 15.3916 56.1429 15.0202 56.1429 14.6549C56.1429 11.0658 53.5099 8.14598 50.273 8.14598C49.8671 8.14598 49.5177 8.18519 49.2316 8.26361C48.9111 8.34959 48.5727 8.30281 48.292 8.13086C48.01 7.9589 47.8119 7.67895 47.7431 7.35567C47.1255 4.43582 44.7841 2.3964 42.0479 2.3964C38.8109 2.3964 36.1779 5.29768 36.1779 8.86478C36.1779 9.52647 35.6414 10.063 34.9797 10.063C34.318 10.063 33.7815 9.52647 33.7815 8.86478C33.7815 3.97704 37.4903 0 42.0479 0C45.5654 0 48.6126 2.32006 49.786 5.76472C49.9442 5.75509 50.1065 5.74959 50.273 5.74959C54.8305 5.74959 58.5393 9.74452 58.5393 14.655C58.5393 14.7753 58.5366 14.8964 58.5311 15.0174C62.1353 16.0299 64.7285 19.5386 64.7285 23.6394C64.7285 24.6774 64.5441 25.7339 64.1892 26.7436C66.5113 28.3765 67.9626 31.1849 67.9626 34.1811C67.9626 35.6937 67.6077 37.1409 66.9047 38.4959C68.8362 40.1522 70 42.7013 70 45.4017C70 47.7115 69.143 49.9524 67.6297 51.6431C67.6655 51.9857 67.6834 52.3282 67.6834 52.6694C67.6834 57.4127 64.2401 61.3003 59.9178 61.5603C58.8379 65.2099 55.6614 67.7632 52.0297 67.7632C50.7737 67.7632 49.5122 67.4399 48.3787 66.8387C46.8283 68.8128 44.4952 70 42.0479 70Z" fill="#6F283B"/>
<path d="M53.1467 30.5074C52.9225 30.5074 52.6969 30.4448 52.4947 30.3135C51.9403 29.953 51.7834 29.2109 52.1439 28.6565C54.5953 24.8865 59.5092 23.8134 63.3308 26.2195C63.8907 26.5717 64.0585 27.3118 63.7063 27.8716C63.3528 28.4315 62.6154 28.5994 62.0542 28.2472C59.3537 26.5455 55.8815 27.3021 54.1523 29.962C53.9226 30.3155 53.5388 30.5074 53.1467 30.5074Z" fill="#6F283B"/>
<path d="M58.9795 61.5342C58.9259 61.5342 58.8709 61.53 58.8158 61.5232C56.6863 61.2315 54.7962 60.1269 53.4962 58.4114C52.1838 56.6794 51.6239 54.5403 51.921 52.386C52.0132 51.7298 52.6295 51.2855 53.2719 51.3625C53.9281 51.4533 54.3848 52.0586 54.2954 52.7134C54.0849 54.2335 54.4798 55.7426 55.4056 56.9642C56.319 58.1693 57.6452 58.9452 59.1405 59.1488C59.7953 59.2382 60.2548 59.8421 60.1654 60.4983C60.0828 61.0981 59.5697 61.5342 58.9795 61.5342Z" fill="#6F283B"/>
<path d="M34.9797 48.9964C34.8456 48.9964 34.7094 48.9743 34.5759 48.9262C33.9528 48.7033 33.6288 48.0169 33.8517 47.3937C34.9811 44.2407 37.8645 42.1098 41.1977 41.9681C41.7961 41.9227 42.4165 42.4523 42.4454 43.114C42.4743 43.7743 41.9612 44.3328 41.2995 44.3617C38.9444 44.4622 36.907 45.9699 36.1077 48.2026C35.9324 48.691 35.4715 48.9964 34.9797 48.9964Z" fill="#6F283B"/>
<path d="M45.8406 47.3579C45.1789 47.3579 44.6424 46.8214 44.6424 46.1597C44.6424 45.498 45.1789 44.9615 45.8406 44.9615C51.4258 44.9615 56.0466 40.7919 56.5873 35.2624C56.6519 34.6048 57.2283 34.122 57.8969 34.1873C58.5558 34.2513 59.0373 34.838 58.9727 35.4963C58.3096 42.2584 52.6639 47.3579 45.8406 47.3579Z" fill="#6F283B"/>
<path d="M60.0567 46.2409C59.7458 46.2409 59.4335 46.1198 59.1997 45.8791C57.8983 44.5447 55.9201 43.9394 54.0547 44.3012C53.404 44.4333 52.7767 44.0013 52.6515 43.352C52.5263 42.7027 52.9514 42.074 53.6007 41.9488C56.2887 41.4316 59.0277 42.2735 60.9137 44.2063C61.376 44.6795 61.3663 45.4375 60.8931 45.8997C60.6606 46.1267 60.358 46.2409 60.0567 46.2409Z" fill="#6F283B"/>
<path d="M41.1289 62.4132C40.4672 62.4132 39.9307 61.8767 39.9307 61.215C39.9307 58.4802 40.8029 55.7385 42.3877 53.4962C42.766 52.9541 43.5157 52.8234 44.0563 53.2086C44.597 53.5897 44.7263 54.3367 44.3438 54.8773C43.0438 56.7207 42.3271 58.9713 42.3271 61.215C42.3271 61.8767 41.7906 62.4132 41.1289 62.4132Z" fill="#6F283B"/>
<path d="M44.2421 11.6202C44.0385 11.6202 43.8307 11.568 43.6409 11.4572C43.0686 11.125 42.8746 10.3918 43.2076 9.8195C44.4003 7.76907 46.4018 6.35144 48.6992 5.92981C49.3499 5.80943 49.9731 6.2414 50.0928 6.89208C50.2124 7.54277 49.7819 8.16663 49.1312 8.28632C47.5478 8.57727 46.1075 9.60077 45.2793 11.0246C45.0565 11.407 44.6548 11.6202 44.2421 11.6202Z" fill="#6F283B"/>
<path d="M41.3683 30.9868C41.067 30.9868 40.7658 30.874 40.5333 30.6477C40.0587 30.1869 40.0476 29.4282 40.5085 28.9536C42.9531 26.4382 44.0275 22.8924 43.385 19.4677C43.2626 18.8177 43.6918 18.1918 44.3411 18.0694C45.0056 17.9497 45.6177 18.3761 45.7402 19.0261C46.5257 23.2143 45.2133 27.5504 42.2281 30.6237C41.9928 30.8651 41.6806 30.9868 41.3683 30.9868Z" fill="#6F283B"/>
<path d="M44.641 24.2385C44.077 24.2385 43.5749 23.8382 43.4648 23.2639C43.3424 22.6139 43.7688 21.9866 44.4195 21.8634C46.5435 21.4604 48.4626 20.4905 49.9676 19.0578C50.4436 18.6017 51.2043 18.6196 51.661 19.0997C52.1164 19.5791 52.0985 20.3378 51.6184 20.7939C49.7791 22.5444 47.4446 23.7281 44.8652 24.2172C44.7896 24.2316 44.7153 24.2385 44.641 24.2385Z" fill="#6F283B"/>
</svg>
