<svg width="37" height="37" viewBox="0 0 37 37" fill="none" xmlns="http://www.w3.org/2000/svg">
<path fill-rule="evenodd" clip-rule="evenodd" d="M31.5636 20.9342L33.6733 21.2588L33.7544 20.8531L31.6447 20.5285L31.5636 20.9342ZM22.8004 5.92325L23.0439 5.35528L23.3684 5.51755C23.6118 5.59869 23.7741 5.59869 23.9364 5.51755C24.0987 5.43641 24.261 5.27412 24.3421 5.0307C24.4233 4.78728 24.4233 4.62501 24.3421 4.46273C24.261 4.30045 24.0987 4.13817 23.8553 4.05703L23.125 3.8136L22.3947 5.8421L22.8004 5.92325ZM23.3684 4.30044L23.693 4.46273C23.7741 4.54387 23.8553 4.54386 23.9364 4.625C23.9364 4.70614 23.9364 4.7873 23.9364 4.94958C23.8553 5.03072 23.8553 5.11185 23.7741 5.19299C23.693 5.19299 23.6118 5.19299 23.4496 5.19299L23.125 5.0307L23.3684 4.30044ZM19.068 4.625H19.4737H19.5548L19.7982 5.27414H20.2851L19.9605 4.54388C20.0417 4.46274 20.204 4.38158 20.2851 4.30044C20.3662 4.2193 20.3662 4.05702 20.3662 3.89474C20.3662 3.65132 20.2851 3.48905 20.2039 3.32677C20.0417 3.16449 19.8794 3.08334 19.636 3.08334L18.8246 3.00219L18.6623 5.11185H19.068V4.625ZM19.1491 3.57019H19.5548C19.636 3.57019 19.7982 3.65133 19.7982 3.65133C19.8794 3.73247 19.8794 3.8136 19.8794 3.89474C19.8794 3.97588 19.7982 4.13818 19.7982 4.13818C19.7171 4.21932 19.636 4.2193 19.4737 4.2193H19.068L19.1491 3.57019ZM30.2653 24.6667L30.671 24.829L31.0768 23.8553L31.4825 24.0176L31.0768 24.829L31.4825 24.9912L31.8882 24.1798L32.2939 24.3421L31.8882 25.3158L32.2939 25.4781L32.8618 24.0987L30.9145 23.2062L30.2653 24.6667ZM16.7149 4.94958C16.796 5.11186 16.8772 5.193 17.0395 5.27414C17.2018 5.35528 17.364 5.35528 17.5263 5.35528C17.6886 5.35528 17.8509 5.27413 17.932 5.19299C18.0943 5.11185 18.1754 5.03072 18.1754 4.86844C18.2566 4.70615 18.2566 4.54387 18.2566 4.38159L18.1754 3.16448H17.7697L17.8509 4.38159C17.8509 4.54387 17.8509 4.62501 17.7697 4.78729C17.6886 4.86843 17.6075 4.94958 17.4452 4.94958C17.2829 4.94958 17.2018 4.94958 17.1206 4.86844C17.0395 4.7873 16.9583 4.70616 16.9583 4.54388L16.8772 3.32677H16.4715L16.5526 4.54388C16.5526 4.70616 16.6338 4.86844 16.7149 4.94958ZM15.011 5.67984L14.8487 5.27414L14.0373 5.51755L13.4693 3.89474L13.0636 4.05703L13.7127 6.08554L15.011 5.67984ZM31.4013 21.6645L32.6996 22.0702L31.1579 22.557L31.0768 22.9627L33.1053 23.5307L33.1864 23.125L31.8882 22.7193L33.511 22.2325L33.5921 21.8268L31.5636 21.2588L31.4013 21.6645ZM16.5526 5.35528L16.4715 4.94958L15.4167 5.19299L15.3355 4.70615L16.2281 4.54388L16.1469 4.13818L15.2544 4.30044L15.1732 3.8136L16.1469 3.57019L16.0658 3.16448L14.6053 3.48904L15.011 5.59869L16.5526 5.35528ZM33.9167 18.5L31.807 18.4189V18.8246L33.1864 18.9057L31.7259 19.7983V20.204L33.8355 20.2851V19.8794L32.4561 19.7983L33.9167 18.9057V18.5ZM30.5899 11.1162L30.9145 11.7654L31.1579 11.6031L30.8333 10.954L30.5899 11.1162ZM30.3465 12.4956H30.7522L31.1579 13.307L30.8333 13.6316L30.9956 14.0373L31.1579 14.443L31.7259 14.2807L31.807 14.6864L31.3202 15.1732L31.4825 15.6601L32.0504 15.0921C32.1316 15.1733 32.2127 15.2544 32.375 15.2544C32.5373 15.2544 32.6184 15.2544 32.7807 15.2544C33.0241 15.1732 33.1864 15.0921 33.2676 14.9298C33.3487 14.7676 33.3487 14.5241 33.2676 14.2807L33.0241 13.4693L30.9956 14.0373L32.6184 12.4145L32.4561 12.0088L30.1842 12.0899L30.3465 12.4956ZM32.7807 13.9561L32.8618 14.3618C32.8618 14.443 32.8618 14.6053 32.8618 14.6864C32.7807 14.7676 32.7807 14.8487 32.6184 14.8487C32.5373 14.8487 32.375 14.8487 32.2939 14.8487C32.2127 14.7675 32.1316 14.6864 32.1316 14.6053L32.0504 14.1996L32.7807 13.9561ZM32.0504 12.3333L31.4013 12.9825L31.1579 12.4145L32.0504 12.3333ZM32.5373 15.4167C32.2127 15.4978 31.9693 15.579 31.807 15.8224C31.6447 16.0658 31.5636 16.3092 31.6447 16.5526C31.6447 16.7149 31.7259 16.7961 31.807 16.9583C31.8882 17.1206 31.9693 17.2018 32.0504 17.2829L33.0241 17.1206L32.943 16.3092L32.6184 16.3903L32.6996 16.7961L32.375 16.8772C32.2939 16.7149 32.2127 16.6338 32.2127 16.5526C32.2127 16.3904 32.2127 16.2281 32.375 16.0658C32.4561 15.9035 32.6184 15.8224 32.7807 15.8224C32.943 15.8224 33.1053 15.8224 33.2676 15.9035C33.4298 15.9847 33.511 16.1469 33.511 16.3092C33.511 16.3904 33.511 16.4715 33.511 16.6338C33.511 16.7961 33.4298 16.7961 33.3487 16.8772L33.7544 17.0395C33.8355 16.9583 33.9167 16.7961 33.9167 16.6338C33.9167 16.4715 33.9167 16.3092 33.9167 16.2281C33.8355 15.9035 33.7544 15.7412 33.511 15.4978C33.1053 15.4167 32.7807 15.3355 32.5373 15.4167ZM25.3158 7.14036L25.4781 6.8158L24.5044 6.32895L24.7478 5.92325L25.5592 6.32895L25.7215 6.0044L24.9101 5.59869L25.1535 5.19299L26.0461 5.67984L26.2083 5.35528L24.9101 4.70615L23.9364 6.57239L25.3158 7.14036ZM31.7259 18.0132L33.8355 17.932V17.5263L31.7259 17.6075V18.0132ZM26.4518 7.87061L27.3443 6.8158L27.182 8.43861L27.5066 8.68202L28.886 6.97809L28.5614 6.73465L27.6689 7.78949L27.8311 6.08554L27.5066 5.8421L26.1272 7.54606L26.4518 7.87061ZM25.8026 7.46491L26.9386 5.67984L26.5329 5.4364L25.3969 7.2215L25.8026 7.46491ZM28.8048 9.16886C28.886 9.25 28.9671 9.25001 29.0482 9.25001C29.1294 9.25001 29.2105 9.25 29.2917 9.16886C29.3728 9.08772 29.4539 9.00659 29.4539 8.92545C29.4539 8.84431 29.454 8.76316 29.3728 8.68202C29.2917 8.60088 29.2105 8.6009 29.1294 8.6009C29.0482 8.6009 28.9671 8.60088 28.886 8.68202C28.8048 8.76316 28.8048 8.84431 28.7237 8.92545C28.7237 9.00659 28.7237 9.08772 28.8048 9.16886ZM29.7785 11.5219L30.1031 11.2785L29.6162 10.6294L30.9956 9.65571L30.7522 9.33115L28.9671 10.5483L29.7785 11.5219ZM20.6908 5.35528C20.8531 5.51756 21.0153 5.59869 21.1776 5.59869C21.3399 5.67983 21.5833 5.59869 21.7456 5.59869C21.9079 5.51755 22.0702 5.43642 22.2325 5.27414C22.3947 5.11186 22.4759 4.94957 22.4759 4.78729C22.557 4.62501 22.4759 4.38158 22.4759 4.2193C22.3947 4.05702 22.3136 3.89476 22.1513 3.73248C21.989 3.5702 21.8268 3.48904 21.6645 3.48904C21.5022 3.48904 21.2588 3.48904 21.0965 3.48904C20.9342 3.57018 20.7719 3.65132 20.6908 3.8136C20.5285 3.97588 20.4474 4.13816 20.4474 4.30044C20.3662 4.54386 20.4474 4.70615 20.4474 4.86844C20.5285 5.03072 20.6097 5.193 20.6908 5.35528ZM20.8531 4.38159C20.8531 4.21931 20.9342 4.13817 21.0154 4.05703C21.0965 3.97589 21.1776 3.89474 21.2588 3.89474C21.3399 3.89474 21.5022 3.8136 21.5833 3.89474C21.6645 3.89474 21.7456 3.97589 21.8268 4.05703C21.9079 4.13817 21.989 4.21931 21.989 4.38159C21.989 4.46273 21.989 4.625 21.989 4.70615C21.989 4.86843 21.9079 4.94956 21.8268 5.0307C21.7456 5.11184 21.6645 5.19299 21.5833 5.19299C21.5022 5.19299 21.4211 5.27413 21.2588 5.19299C21.1776 5.19299 21.0965 5.11184 21.0154 5.0307C20.9342 4.94956 20.8531 4.86843 20.8531 4.70615C20.8531 4.625 20.8531 4.46273 20.8531 4.38159ZM5.4364 16.1469L4.86842 15.9846L4.94956 15.5789V15.4978L5.59868 15.3355L5.67983 14.8487L5.8421 14.5241L5.51754 14.2807L5.8421 13.4693H6.24781L6.41008 13.0636L4.13815 13.1447L3.97587 13.5504L5.67983 15.011L5.0307 15.2544C5.0307 15.0921 4.94956 15.011 4.78728 14.9298C4.70614 14.8487 4.54386 14.7675 4.38157 14.7675C4.13815 14.6864 3.97588 14.7675 3.81359 14.8487C3.65131 14.9298 3.57017 15.1733 3.48903 15.4167L3.32675 16.2281L5.4364 16.6338V16.1469ZM5.19298 14.0373L4.54385 13.4693H5.4364L5.19298 14.0373ZM4.54385 15.5789L4.46272 15.9846L3.73245 15.8224L3.81359 15.4167C3.81359 15.3355 3.89473 15.1732 3.97587 15.1732C4.05701 15.0921 4.13816 15.0921 4.2193 15.1732C4.30044 15.1732 4.38158 15.2544 4.46272 15.3355C4.54386 15.3355 4.54385 15.4167 4.54385 15.5789ZM11.6842 6.49124C11.8465 6.57238 12.0088 6.65351 12.1711 6.65351C12.3333 6.65351 12.4956 6.65353 12.739 6.57239C12.9013 6.49125 13.0636 6.32895 13.1447 6.24781C13.2259 6.08553 13.307 5.92326 13.307 5.76098C13.307 5.5987 13.307 5.35527 13.1447 5.19299C13.0636 5.03071 12.9013 4.86843 12.739 4.70615C12.5768 4.625 12.4145 4.54388 12.2522 4.54388C12.0899 4.54388 11.9276 4.54386 11.6842 4.625C11.5219 4.70614 11.3596 4.86844 11.2785 4.94958C11.1974 5.11186 11.1162 5.27412 11.1162 5.4364C11.1162 5.59868 11.1162 5.84211 11.1974 6.0044C11.4408 6.24782 11.5219 6.4101 11.6842 6.49124ZM11.7654 5.19299C11.8465 5.11185 11.9276 5.03072 12.0088 4.94958C12.0899 4.86844 12.1711 4.86844 12.3333 4.86844C12.4145 4.86844 12.5767 4.94956 12.6579 5.0307C12.739 5.11184 12.8202 5.193 12.9013 5.27414C12.9825 5.35528 12.9825 5.51755 12.9825 5.59869C12.9825 5.67983 12.9825 5.84211 12.9013 5.92325C12.8202 6.00439 12.739 6.08555 12.6579 6.16669C12.5767 6.24783 12.4956 6.24781 12.3333 6.24781C12.2522 6.24781 12.0899 6.16668 12.0088 6.08554C11.9276 6.0044 11.8465 5.92325 11.7654 5.8421C11.6842 5.76096 11.6842 5.59869 11.6842 5.51755C11.6842 5.43641 11.6842 5.27413 11.7654 5.19299ZM5.35526 16.7149H4.94956L4.86842 17.7697H4.38157L4.46272 16.8772H4.05702L3.97587 17.7697H3.48903L3.57017 16.7149H3.16447L3.08332 18.1754L5.19298 18.3377L5.35526 16.7149ZM4.86842 12.2522L6.41008 12.9825L6.57236 12.5768L5.0307 11.8465L5.27412 11.2785L4.86842 11.1162L4.2193 12.5768L4.625 12.739L4.86842 12.2522ZM5.27412 18.9868L3.08332 18.3377V18.8246L4.70613 19.2303L3.08332 19.7983V20.2851L5.19298 19.3926L5.27412 18.9868ZM6.57236 24.3421L6.00438 24.5855L5.8421 24.261L6.24781 23.693L6.00438 23.2062L5.51754 23.8553C5.43639 23.7741 5.27412 23.693 5.19298 23.693C5.0307 23.693 4.94956 23.693 4.78728 23.7741C4.54386 23.8553 4.46272 24.0175 4.38157 24.1798C4.30043 24.3421 4.38158 24.5855 4.46272 24.829L4.78728 25.5592L6.73464 24.6667L6.57236 24.3421ZM5.0307 25.0724L4.86842 24.6667C4.78728 24.5855 4.78728 24.4233 4.86842 24.3421C4.86842 24.261 4.94955 24.1798 5.11183 24.1798C5.19297 24.0987 5.35526 24.0987 5.4364 24.1798C5.51754 24.1798 5.59869 24.261 5.67983 24.4233L5.8421 24.7478L5.0307 25.0724ZM5.59868 21.6645L5.19298 21.7456L5.51754 22.8005L5.0307 22.9627L4.78728 22.0702L4.38157 22.1513L4.625 23.0439L4.2193 23.2062L3.89473 22.2325L3.48903 22.3136L3.89473 23.693L5.92324 23.0439L5.59868 21.6645ZM3.73245 21.8268C3.81359 21.9079 3.97588 21.9079 4.05702 21.8268C4.2193 21.8268 4.30043 21.7456 4.38157 21.6645C4.46272 21.5833 4.46271 21.5022 4.54385 21.4211C4.54385 21.3399 4.625 21.2588 4.625 21.0965C4.625 21.0154 4.625 20.9342 4.625 20.8531C4.625 20.7719 4.62499 20.7719 4.70613 20.6908C4.70613 20.6908 4.78728 20.6097 4.86842 20.6097C4.94956 20.6097 5.0307 20.6097 5.0307 20.6908C5.11184 20.7719 5.11183 20.7719 5.11183 20.8531C5.11183 20.9342 5.11183 21.0965 5.11183 21.1776C5.11183 21.3399 5.0307 21.4211 4.94956 21.5834L5.35526 21.6645C5.4364 21.5022 5.51754 21.421 5.51754 21.2588C5.51754 21.0965 5.51754 20.9342 5.51754 20.7719C5.51754 20.6097 5.4364 20.5285 5.35526 20.3662C5.27412 20.2851 5.19297 20.2039 5.11183 20.1228C5.03069 20.0417 4.86842 20.0417 4.78728 20.1228C4.625 20.1228 4.54386 20.204 4.46272 20.2851C4.38158 20.3662 4.30043 20.4474 4.30043 20.5285C4.30043 20.6097 4.2193 20.7719 4.2193 20.8531C4.2193 21.0153 4.13815 21.0965 4.13815 21.1776C4.13815 21.2588 4.05701 21.2588 3.97587 21.3399C3.89473 21.3399 3.89474 21.3399 3.81359 21.2588C3.73245 21.1776 3.73245 21.1776 3.73245 21.0965C3.73245 21.0154 3.73245 20.9342 3.73245 20.7719C3.73245 20.6908 3.81359 20.5285 3.81359 20.4474L3.40789 20.3662C3.32675 20.4474 3.32675 20.6097 3.32675 20.7719C3.32675 20.9342 3.32675 21.0154 3.32675 21.1776C3.32675 21.3399 3.40789 21.4211 3.48903 21.5834C3.48903 21.6645 3.57017 21.7456 3.73245 21.8268ZM7.14034 11.6842L6.65351 11.3597L6.89693 11.0351L7.54604 11.1162L7.78947 10.7105H6.97806C6.97806 10.5482 6.97807 10.4671 6.89693 10.3048C6.81579 10.2237 6.73464 10.0614 6.57236 9.98027C6.41008 9.81799 6.16666 9.818 6.00438 9.818C5.8421 9.89914 5.67982 9.98028 5.51754 10.2237L5.0307 10.954L6.81579 12.0899L7.14034 11.6842ZM6.49123 10.7917L6.24781 11.1162L5.59868 10.7105L5.8421 10.386C5.92324 10.3048 6.00439 10.2237 6.08553 10.2237C6.16667 10.2237 6.2478 10.2237 6.32894 10.3048C6.41008 10.386 6.49123 10.4671 6.49123 10.5483C6.57237 10.5483 6.57237 10.7105 6.49123 10.7917ZM10.2237 8.19519L9.98026 7.87061L9.33114 8.43861L8.19517 7.14036L7.87061 7.46491L9.33114 9.08772L10.2237 8.19519ZM10.386 7.05921C10.4671 7.05921 10.5482 7.05923 10.6294 6.97809C10.7105 6.89695 10.7105 6.81579 10.7917 6.73465C10.7917 6.65351 10.7917 6.57238 10.7105 6.49124C10.6294 6.4101 10.5482 6.32895 10.4671 6.32895C10.386 6.32895 10.3048 6.32896 10.2237 6.4101C10.1425 6.49124 10.1425 6.57237 10.0614 6.65351C10.0614 6.73465 10.0614 6.8158 10.1425 6.89694C10.2237 6.97808 10.3048 7.05921 10.386 7.05921ZM6.97806 9.98027C7.14035 10.1425 7.30263 10.2237 7.46491 10.2237C7.62719 10.3048 7.87061 10.2237 8.03289 10.2237C8.19517 10.1426 8.35746 10.0614 8.51974 9.89912C8.68202 9.73684 8.76315 9.57458 8.76315 9.4123C8.76315 9.25002 8.76316 9.08773 8.68202 8.84431C8.60088 8.68203 8.51973 8.51974 8.35745 8.35746C8.19517 8.19518 8.03289 8.11405 7.87061 8.11405C7.70833 8.03291 7.46491 8.11405 7.30263 8.11405C7.14035 8.19519 6.97807 8.27632 6.81579 8.43861C6.65351 8.60089 6.57236 8.76317 6.57236 8.92545C6.57236 9.08773 6.57237 9.25 6.65351 9.49342C6.65351 9.6557 6.81578 9.81799 6.97806 9.98027ZM7.14034 8.76316C7.22148 8.68202 7.30263 8.6009 7.38377 8.6009C7.46491 8.6009 7.62719 8.6009 7.70834 8.6009C7.78948 8.6009 7.95175 8.68202 8.03289 8.76316C8.11403 8.8443 8.19517 8.92544 8.27632 9.08772C8.35746 9.16886 8.35745 9.33116 8.35745 9.4123C8.35745 9.49344 8.27631 9.57457 8.19517 9.65571C8.11403 9.73685 8.03289 9.818 7.95175 9.818C7.87061 9.818 7.70833 9.818 7.62719 9.818C7.54605 9.818 7.38377 9.73685 7.30263 9.65571C7.22149 9.57457 7.14035 9.49343 7.05921 9.33115C6.97807 9.25001 6.97806 9.08774 6.97806 9.0066C6.97806 8.92546 7.0592 8.8443 7.14034 8.76316ZM12.2522 29.2917C12.0899 29.0483 11.9276 28.8048 11.6842 28.6425C11.4408 28.4803 11.1162 28.3991 10.8728 28.318C10.5482 28.318 10.3048 28.318 10.0614 28.4803C9.81798 28.6426 9.57456 28.8048 9.41228 29.0482C9.24999 29.2917 9.16886 29.6162 9.08772 29.8597C9.08772 30.1842 9.08772 30.4276 9.25 30.6711C9.41228 30.9145 9.57456 31.1579 9.81798 31.3202C10.0614 31.4825 10.386 31.5636 10.7105 31.6447C11.0351 31.6447 11.2785 31.6447 11.5219 31.4825C11.7654 31.3202 12.0088 31.1579 12.1711 30.9145C12.3333 30.6711 12.4145 30.3465 12.4956 30.1031C12.4956 29.8597 12.4145 29.5351 12.2522 29.2917ZM11.5219 30.0219C11.5219 30.1842 11.4408 30.3465 11.3597 30.4276C11.2785 30.5899 11.1162 30.6711 11.0351 30.7522C10.8728 30.8333 10.7917 30.8333 10.6294 30.8333C10.4671 30.8333 10.386 30.8333 10.2237 30.7522C10.1425 30.6711 10.0614 30.5899 9.98026 30.4276C9.89912 30.2654 9.89912 30.1842 9.89912 30.0219C9.89912 29.8597 9.98026 29.6974 10.0614 29.6162C10.1425 29.454 10.3048 29.3728 10.386 29.2917C10.5482 29.2105 10.6294 29.2105 10.7917 29.2105C10.9539 29.2105 11.0351 29.2105 11.1974 29.2917C11.2785 29.3728 11.3596 29.454 11.4408 29.6162C11.5219 29.6974 11.5219 29.8597 11.5219 30.0219ZM19.1491 30.8333L16.3904 30.6711L16.3092 31.4825L17.2018 31.5636L17.0395 34.079L17.932 34.1601L18.0943 31.6447L18.9868 31.7259L19.1491 30.8333ZM9.08772 28.1557H9.98026C9.98026 27.9123 9.98026 27.6689 9.89912 27.4254C9.81798 27.182 9.73683 26.9386 9.57455 26.7763C9.33113 26.5329 9.08772 26.3706 8.8443 26.2895C8.60087 26.2083 8.27631 26.2083 8.03289 26.2083C7.70833 26.2895 7.46491 26.3706 7.22149 26.614C6.97807 26.8575 6.81578 27.1009 6.73464 27.3443C6.6535 27.5877 6.57237 27.9123 6.65351 28.1557C6.73465 28.4803 6.81579 28.7237 7.05921 28.9671C7.22149 29.1294 7.38377 29.2917 7.62719 29.3728C7.87061 29.4539 8.11403 29.5351 8.35745 29.5351L8.43859 28.7237C8.27631 28.7237 8.11403 28.7237 7.95175 28.6425C7.78947 28.5614 7.70833 28.4803 7.62719 28.3991C7.54605 28.318 7.46491 28.1557 7.46491 28.0746C7.46491 27.9123 7.4649 27.8312 7.54604 27.6689C7.62718 27.5066 7.70833 27.4255 7.78947 27.2632C7.87061 27.1009 8.03289 27.1009 8.19517 27.0197C8.35745 27.0197 8.43859 27.0197 8.60087 27.0197C8.76315 27.0197 8.8443 27.1009 8.92544 27.2632C9.00658 27.3443 9.08772 27.5066 9.08772 27.6689C9.08772 27.8312 9.08772 27.9934 9.08772 28.1557ZM19.7982 30.6711L18.9868 34.079L19.9605 33.9167L20.0417 33.3487L21.2588 33.1864L21.5022 33.6733L22.4759 33.511L20.6908 30.4276L19.7982 30.6711ZM20.1228 32.6996L20.3662 31.5636L20.8531 32.5373L20.1228 32.6996ZM14.7675 32.1316L14.0373 30.0219L13.307 29.7785L12.3333 32.8619L13.1447 33.1053L13.7127 31.4013L14.443 33.511L15.1732 33.7544L16.1469 30.6711L15.3355 30.4276L14.7675 32.1316ZM25.4781 28.6425L26.4518 30.1842L24.3421 29.3728L23.693 29.7785L25.3969 32.5373L26.1272 32.0504L25.1535 30.5088L27.2632 31.3202L27.9123 30.9145L26.2083 28.1557L25.4781 28.6425ZM22.1513 30.2654L23.2873 33.3487L24.1798 33.0241L23.0439 29.9408L22.1513 30.2654ZM29.9408 27.5877C29.7785 27.4254 29.6162 27.3443 29.4539 27.3443C29.2917 27.3443 29.1294 27.3443 28.9671 27.4254C28.8048 27.5066 28.6425 27.5877 28.4803 27.6689C28.318 27.75 28.1557 27.8311 28.0746 27.8311C27.9934 27.8311 27.9123 27.8311 27.8311 27.8311C27.75 27.75 27.75 27.75 27.75 27.6689C27.75 27.5877 27.75 27.5877 27.8311 27.5066C27.9123 27.4254 28.0746 27.3443 28.2368 27.2632C28.3991 27.182 28.6426 27.1009 28.8048 27.0197L28.4803 26.2895C28.2368 26.3706 28.0746 26.4518 27.8311 26.5329C27.5877 26.614 27.4254 26.7763 27.2632 26.9386C27.1009 27.1009 26.9386 27.3443 26.8575 27.5066C26.7763 27.6689 26.7763 27.9123 26.7763 28.0746C26.8575 28.2369 26.9386 28.3991 27.1009 28.5614C27.2632 28.7237 27.4254 28.8048 27.5877 28.8048C27.75 28.8048 27.9123 28.8048 28.0746 28.7237C28.2368 28.6426 28.3991 28.5614 28.5614 28.4803C28.7237 28.3991 28.886 28.318 28.9671 28.2368C29.0482 28.2368 29.1294 28.2368 29.2105 28.318C29.2917 28.3991 29.2917 28.3991 29.2917 28.4803C29.2917 28.5614 29.2105 28.6426 29.2105 28.7237C29.1294 28.8048 28.9671 28.9671 28.7237 29.0482C28.4803 29.1294 28.2368 29.2105 28.0746 29.2105L28.3991 29.9408C28.6426 29.9408 28.886 29.8597 29.1294 29.6974C29.3728 29.5351 29.6162 29.3728 29.7785 29.2105C29.9408 29.0483 30.1031 28.886 30.1842 28.6425C30.2654 28.4803 30.2653 28.2369 30.2653 28.0746C30.1842 27.9123 30.1031 27.75 29.9408 27.5877ZM18.5 1.52588e-05C8.27631 1.52588e-05 0 8.27632 0 18.5C0 28.7237 8.27631 37 18.5 37C28.7237 37 37 28.7237 37 18.5C37 8.27632 28.7237 1.52588e-05 18.5 1.52588e-05ZM18.5 36.1075C8.76315 36.1075 0.892537 28.2368 0.892537 18.5C0.892537 8.76316 8.76315 0.892564 18.5 0.892564C28.2368 0.892564 36.1075 8.76316 36.1075 18.5C36.1075 28.2368 28.2368 36.1075 18.5 36.1075ZM15.5789 12.6579V15.5789H12.6579C11.0351 15.5789 9.73684 16.8772 9.73684 18.5C9.73684 20.1228 11.0351 21.4211 12.6579 21.4211H20.3662V26.2083H16.6338V22.4759H15.5789V27.2632H21.4211V21.4211H27.2632V15.5789H22.4759V16.6338H26.2083V20.3662H21.4211V12.6579C21.4211 11.0351 20.1228 9.73686 18.5 9.73686C16.8772 9.818 15.5789 11.1162 15.5789 12.6579ZM16.6338 12.6579C16.6338 11.6031 17.4452 10.7917 18.5 10.7917C19.5548 10.7917 20.3662 11.6031 20.3662 12.6579V20.3662H12.6579C11.6031 20.3662 10.7917 19.5548 10.7917 18.5C10.7917 17.4452 11.6031 16.6338 12.6579 16.6338H16.6338V12.6579V12.6579Z" fill="#691C32"/>
</svg>
