<svg width="53" height="53" viewBox="0 0 53 53" fill="none" xmlns="http://www.w3.org/2000/svg">
<path d="M4.50868 0C2.03785 0 0 2.0377 0 4.50868V48.4971C0 50.968 2.03785 53 4.50868 53H48.4913C50.9622 53 53 50.968 53 48.4971V4.50868C53 2.0377 50.9622 0 48.4913 0H4.50868ZM4.50868 2.9502H48.4913C49.3818 2.9502 50.0556 3.61799 50.0556 4.50868V48.4971C50.0556 49.3878 49.3818 50.0556 48.4913 50.0556H4.50868C3.61824 50.0556 2.94444 49.3878 2.94444 48.4971V4.50868C2.94444 3.61799 3.61824 2.9502 4.50868 2.9502ZM25.0278 8.83333C24.6373 8.83337 24.2629 8.98849 23.9868 9.26458C23.7107 9.54067 23.5556 9.91511 23.5556 10.3056V19.1389C23.5556 19.5293 23.7107 19.9038 23.9868 20.1799C24.2629 20.4559 24.6373 20.6111 25.0278 20.6111H42.6944C43.0849 20.6111 43.4593 20.4559 43.7354 20.1799C44.0115 19.9038 44.1666 19.5293 44.1667 19.1389V10.3056C44.1666 9.91511 44.0115 9.54067 43.7354 9.26458C43.4593 8.98849 43.0849 8.83337 42.6944 8.83333H25.0278ZM8.83333 11.7778V14.7222H17.6667V11.7778H8.83333ZM26.5 11.7778H41.2222V17.6667H26.5V11.7778ZM25.0278 23.5556C24.6373 23.5556 24.2629 23.7107 23.9868 23.9868C23.7107 24.2629 23.5556 24.6373 23.5556 25.0278V33.8611C23.5556 34.2516 23.7107 34.626 23.9868 34.9021C24.2629 35.1782 24.6373 35.3333 25.0278 35.3333H42.6944C43.0849 35.3333 43.4593 35.1782 43.7354 34.9021C44.0115 34.626 44.1666 34.2516 44.1667 33.8611V25.0278C44.1666 24.6373 44.0115 24.2629 43.7354 23.9868C43.4593 23.7107 43.0849 23.5556 42.6944 23.5556H25.0278ZM8.83333 26.5V29.4444H17.6667V26.5H8.83333ZM26.5 26.5H41.2222V32.3889H26.5V26.5ZM8.83333 41.2222V44.1667H43.8676V41.2222H8.83333Z" fill="#6F283B"/>
</svg>
