<svg width="60" height="60" viewBox="0 0 60 60" fill="none" xmlns="http://www.w3.org/2000/svg">
<path d="M54.2727 38.3182C54.5455 35.25 54.5455 31.9773 54.5455 28.5682C54.5455 12.8182 43.5682 0 30 0C16.4318 0 5.45455 12.8182 5.45455 28.5682C5.45455 31.9773 5.45455 35.25 5.72727 38.3182C2.38636 39.3409 0 42.4773 0 46.1591V51.8182C0 54 0.886364 56.0455 2.38636 57.6136C3.95455 59.1818 6 60 8.18182 60H11.5909C14.5909 60 17.0455 57.5455 17.0455 54.5455V43.4318C17.0455 42 16.5 40.6364 15.4091 39.6136C14.3864 38.5909 13.0227 38.0455 11.5909 38.0455H8.52273C8.18182 35.0455 8.18182 31.9091 8.18182 28.5682C8.18182 14.3182 18 2.72727 30 2.72727C42 2.72727 51.8182 14.3182 51.8182 28.5682C51.8182 31.9091 51.8182 35.0455 51.5455 37.9773H48.4091C45.4091 37.9773 42.9545 40.4318 42.9545 43.4318V54.5455C42.9545 57.5455 45.4091 60 48.4091 60H51.8182C56.3182 60 60 56.3182 60 51.8182V46.1591C60 42.4773 57.5455 39.3409 54.2727 38.3182ZM11.5909 40.7045C12.3409 40.7045 13.0227 40.9773 13.5 41.5227C14.0455 42.0682 14.3182 42.75 14.3182 43.4318V54.5455C14.3182 56.0455 13.0909 57.2727 11.5909 57.2727H8.18182C6.75 57.2727 5.38636 56.7273 4.36364 55.7045C3.34091 54.6136 2.72727 53.25 2.72727 51.8182V46.1591C2.72727 43.1591 5.18182 40.7045 8.18182 40.7045H11.5909ZM57.2727 51.8182C57.2727 54.8182 54.8182 57.2727 51.8182 57.2727H48.4091C46.9091 57.2727 45.6818 56.0455 45.6818 54.5455V43.4318C45.6818 41.9318 46.9091 40.7045 48.4091 40.7045H51.8182C54.8182 40.7045 57.2727 43.1591 57.2727 46.1591V51.8182Z" fill="#6F283B"/>
</svg>
