<svg width="65" height="54" viewBox="0 0 65 54" fill="none" xmlns="http://www.w3.org/2000/svg">
<path d="M31.2095 8.57329C23.7062 -1.65302 0.629884 2.95306 3.37565 20.1317C4.12566 24.8266 6.72704 28.7944 8.7252 30.8156C13.9047 36.0536 21.7698 43.5975 27.1763 48.7626C30.1218 51.5774 34.8802 51.5774 37.8265 48.7626C43.2322 43.5983 51.0989 36.0528 56.2776 30.8156C58.2757 28.7944 60.8763 24.8266 61.6271 20.1317C64.413 2.70329 41.1017 -1.45003 33.7796 8.59074C33.1395 9.4685 31.8224 9.43917 31.2095 8.57329ZM18.9984 7.76134C21.0735 7.78592 21.0326 10.9029 18.9607 10.8759C14.1437 10.8125 11.41 13.5806 11.0298 18.1415C10.8589 20.1912 7.70807 19.9343 7.87893 17.8846C8.39552 11.703 12.5507 7.66619 18.9984 7.76134ZM29.3742 2.9039C30.5357 3.57551 31.5914 4.37001 32.501 5.28108C43.8779 -6.10369 67.7476 1.79064 64.7403 20.6083C63.8708 26.0469 60.8555 30.6459 58.538 32.989C53.3505 38.2357 45.3932 45.8692 40.0131 51.0105C35.8403 54.9965 29.1624 54.9965 24.9896 51.0105C19.6096 45.8692 11.6523 38.2357 6.46474 32.989C4.14732 30.6459 1.13123 26.0469 0.261696 20.6083C-2.41669 3.84748 16.0384 -4.81361 29.3742 2.9039Z" fill="#6F283B"/>
</svg>
