<svg width="62" height="71" viewBox="0 0 62 71" fill="none" xmlns="http://www.w3.org/2000/svg">
<path d="M8.60325 30.9769C11.4499 30.9769 13.7576 28.6659 13.7576 25.8151C13.7576 22.9643 11.4499 20.6533 8.60325 20.6533C5.75656 20.6533 3.44886 22.9643 3.44886 25.8151C3.44886 28.6659 5.75656 30.9769 8.60325 30.9769Z" fill="#6F283B"/>
<path d="M13.0936 68.444L13.0936 51.1671C13.0936 51.1048 13.0794 51.0464 13.0754 50.9865L13.8947 50.9865C15.7216 50.9865 17.2049 49.501 17.2049 47.6723L17.2049 35.6976C17.2049 33.8666 15.7239 32.3803 13.8971 32.3803L3.30943 32.3803C1.48101 32.3803 1.35218e-07 33.8658 1.42532e-07 35.6976L1.90334e-07 47.6699C1.97645e-07 49.501 1.48101 50.9865 3.30864 50.9865L4.1295 50.9865C4.12398 51.0464 4.11217 51.1048 4.11217 51.1663L4.11217 68.444C4.11217 69.8569 5.25444 70.9984 6.66376 70.9984L10.5412 70.9984C11.9529 70.9984 13.0936 69.8537 13.0936 68.444Z" fill="#6F283B"/>
<path d="M31.0028 30.9769C33.8494 30.9769 36.1571 28.6659 36.1571 25.8151C36.1571 22.9643 33.8494 20.6533 31.0028 20.6533C28.1561 20.6533 25.8484 22.9643 25.8484 25.8151C25.8484 28.6659 28.1561 30.9769 31.0028 30.9769Z" fill="#6F283B"/>
<path d="M35.4915 68.444L35.4915 51.1671C35.4915 51.1048 35.4749 51.0464 35.4749 50.9865L36.2942 50.9865C38.1211 50.9865 39.6013 49.501 39.6013 47.6723L39.6036 47.6723L39.6036 35.6976C39.6036 33.8666 38.1211 32.3803 36.2942 32.3803L25.7058 32.3803C23.8766 32.3803 22.3956 33.8658 22.3956 35.6976L22.3956 47.6699C22.3956 49.501 23.8766 50.9865 25.7026 50.9865L26.5243 50.9865C26.5195 51.0464 26.5038 51.1048 26.5038 51.1663L26.5038 68.444C26.5038 69.8569 27.6484 70.9984 29.0577 70.9984L32.9359 70.9984C34.3484 70.9984 35.4915 69.8537 35.4915 68.444Z" fill="#6F283B"/>
<path d="M53.4007 30.9769C56.2474 30.9769 58.5551 28.6659 58.5551 25.8151C58.5551 22.9643 56.2474 20.6533 53.4007 20.6533C50.554 20.6533 48.2463 22.9643 48.2463 25.8151C48.2463 28.6659 50.554 30.9769 53.4007 30.9769Z" fill="#6F283B"/>
<path d="M58.6992 32.3835L48.1069 32.3835C46.2784 32.3835 44.7974 33.8666 44.7974 35.6976L44.7974 47.6723C44.7974 49.5033 46.2784 50.9865 48.1069 50.9865L48.9277 50.9864C48.923 51.0464 48.9096 51.1048 48.9096 51.1671L48.9096 68.4448C48.9096 69.8561 50.0495 71 51.4565 71L55.3362 71C56.7448 71 57.8925 69.8561 57.8925 68.4448L57.8925 51.1655C57.8925 51.1024 57.876 51.0448 57.8721 50.9857L58.6921 50.9857C60.5182 50.9857 62 49.5002 62 47.6691L62 35.6976C62.0039 33.8666 60.5253 32.3835 58.6992 32.3835Z" fill="#6F283B"/>
<path d="M31.0028 10.3235C33.8494 10.3235 36.1571 8.01252 36.1571 5.16176C36.1571 2.311 33.8494 -1.35152e-07 31.0028 -1.23786e-07C28.1561 -1.1242e-07 25.8484 2.311 25.8484 5.16176C25.8484 8.01252 28.1561 10.3235 31.0028 10.3235Z" fill="#6F283B"/>
<path d="M19.8038 20.6526C22.6518 20.6526 24.9605 18.3405 24.9605 15.4884C24.9605 12.6364 22.6518 10.3243 19.8038 10.3243C16.9558 10.3243 14.647 12.6364 14.647 15.4884C14.647 18.3405 16.9558 20.6526 19.8038 20.6526Z" fill="#6F283B"/>
<path d="M42.2017 20.6502C45.0484 20.6502 47.3561 18.3392 47.3561 15.4884C47.3561 12.6377 45.0484 10.3267 42.2017 10.3267C39.355 10.3267 37.0473 12.6377 37.0473 15.4884C37.0473 18.3392 39.355 20.6502 42.2017 20.6502Z" fill="#6F283B"/>
</svg>
