<svg width="57" height="64" viewBox="0 0 57 64" fill="none" xmlns="http://www.w3.org/2000/svg">
<path d="M55.7592 22.0778C55.3508 21.6629 54.8646 21.3323 54.3282 21.105C53.7919 20.8777 53.2159 20.758 52.6333 20.7529C52.0506 20.7478 51.4726 20.8573 50.9323 21.0752C50.3921 21.293 49.9001 21.615 49.4844 22.0227C48.645 22.8461 48.1676 23.9686 48.1573 25.1433C48.1521 25.725 48.2618 26.302 48.4801 26.8414C48.6983 27.3807 49.0208 27.8719 49.4292 28.2868L47.6838 31.5954C47.5868 31.763 47.5357 31.9532 47.5357 32.1468C47.5357 32.3404 47.5868 32.5306 47.6838 32.6982L51.3293 38.9954L48.0152 44.7412H41.3869L39.8955 42.1496C40.7276 41.3189 41.1951 40.1922 41.1951 39.0175C41.1951 37.8427 40.7276 36.7161 39.8955 35.8854C39.0634 35.0547 37.9349 34.5881 36.7582 34.5881C35.5814 34.5881 34.4529 35.0547 33.6208 35.8854C33.0786 36.4519 32.6973 37.1523 32.5161 37.9146H29.4781L26.164 32.1688L29.4781 26.423H36.7692C36.9639 26.4238 37.1553 26.3732 37.324 26.2764C37.4928 26.1795 37.633 26.0399 37.7303 25.8716L41.6962 19.023C41.7932 18.8553 41.8442 18.6651 41.8442 18.4715C41.8442 18.278 41.7932 18.0878 41.6962 17.9201L37.7303 10.9722C37.633 10.8039 37.4928 10.6643 37.324 10.5675C37.1553 10.4706 36.9639 10.42 36.7692 10.4208H29.4781L25.8326 4.12359C25.7352 3.95529 25.5951 3.81565 25.4263 3.71882C25.2575 3.62199 25.0661 3.57139 24.8715 3.57217H21.3143C21.1529 2.69533 20.7293 1.88787 20.0991 1.2562C19.2542 0.449949 18.1305 0 16.9617 0C15.7929 0 14.6692 0.449949 13.8243 1.2562C13.3604 1.72896 13.009 2.29987 12.7962 2.92662C12.5833 3.55337 12.5144 4.2199 12.5946 4.87684C12.6748 5.53377 12.902 6.16428 13.2595 6.72164C13.6169 7.279 14.0954 7.74894 14.6594 8.09664C15.2235 8.44434 15.8587 8.66088 16.5179 8.73024C17.1772 8.79959 17.8436 8.71997 18.4679 8.49728C19.0922 8.27459 19.6582 7.91454 20.1242 7.44379C20.5901 6.97304 20.944 6.40367 21.1596 5.77785H24.2528L27.5669 11.5237L23.9214 17.8209C23.8244 17.9885 23.7734 18.1787 23.7734 18.3723C23.7734 18.5659 23.8244 18.7561 23.9214 18.9237L27.5669 25.2209L24.2528 30.9667H16.9617C16.7671 30.966 16.5756 31.0166 16.4069 31.1134C16.2381 31.2102 16.0979 31.3499 16.0006 31.5182L12.3551 37.8154H5.06397C4.86931 37.8146 4.6779 37.8652 4.50912 37.962C4.34035 38.0589 4.2002 38.1985 4.10287 38.3668L0.148003 45.2265C0.0510446 45.3941 0 45.5843 0 45.7779C0 45.9715 0.0510446 46.1617 0.148003 46.3293L4.11392 53.1669C4.21125 53.3352 4.3514 53.4749 4.52017 53.5717C4.68895 53.6685 4.88036 53.7191 5.07502 53.7184H12.3661L13.6586 55.924C13.4957 56.0384 13.3407 56.1637 13.1947 56.299C12.4263 57.0385 11.9473 58.0273 11.8437 59.0877C11.74 60.1481 12.0186 61.2107 12.6293 62.0845C13.2399 62.9583 14.1427 63.586 15.1754 63.855C16.2081 64.1239 17.303 64.0165 18.2635 63.5518C19.2239 63.0872 19.9869 62.2959 20.4154 61.3201C20.8439 60.3443 20.9098 59.2479 20.6012 58.228C20.2926 57.208 19.6299 56.3313 18.732 55.7554C17.834 55.1795 16.7598 54.9421 15.7023 55.0859L13.9459 52.0641C13.8485 51.8958 13.7084 51.7562 13.5396 51.6593C13.3708 51.5625 13.1794 51.5119 12.9848 51.5127H5.69366L2.37952 45.7669L5.69366 40.0211H12.3219L15.9675 46.3183C16.0648 46.4866 16.205 46.6262 16.3737 46.7231C16.5425 46.8199 16.7339 46.8705 16.9286 46.8697H24.8825C25.0772 46.8705 25.2686 46.8199 25.4373 46.7231C25.6061 46.6262 25.7463 46.4866 25.8436 46.3183L29.4891 40.0211H32.494C32.7387 40.9675 33.2914 41.8059 34.0652 42.4047C34.839 43.0035 35.7901 43.3289 36.7692 43.3296C37.1694 43.3245 37.567 43.2651 37.9512 43.1531L39.4536 45.7558L35.8081 52.0531C35.7111 52.2207 35.6601 52.4109 35.6601 52.6045C35.6601 52.7981 35.7111 52.9883 35.8081 53.1559L39.774 60.0046C39.861 60.1732 39.99 60.3166 40.1487 60.421C40.3074 60.5253 40.4903 60.587 40.6799 60.6001H48.6007C48.7953 60.6009 48.9867 60.5503 49.1555 60.4534C49.3243 60.3566 49.4644 60.217 49.5618 60.0487L53.5277 53.2C53.6246 53.0324 53.6757 52.8422 53.6757 52.6486C53.6757 52.455 53.6246 52.2648 53.5277 52.0972L49.8821 45.8L53.5277 39.5027C53.6246 39.3351 53.6757 39.1449 53.6757 38.9513C53.6757 38.7577 53.6246 38.5675 53.5277 38.3999L49.8711 32.0806L51.2741 29.4669C52.0405 29.711 52.86 29.7371 53.6405 29.5423C54.421 29.3475 55.1317 28.9395 55.6929 28.364C56.1071 27.9539 56.4358 27.466 56.6602 26.9285C56.8845 26.3909 57 25.8143 57 25.232C57 24.6496 56.8845 24.073 56.6602 23.5355C56.4358 22.9979 56.1071 22.51 55.6929 22.0999L55.7592 22.0778ZM15.382 5.9543C15.0764 5.64451 14.8693 5.25145 14.7868 4.82451C14.7043 4.39758 14.75 3.95583 14.9182 3.55476C15.0864 3.1537 15.3696 2.81121 15.7322 2.57034C16.0948 2.32947 16.5207 2.20095 16.9562 2.20095C17.3917 2.20095 17.8176 2.32947 18.1802 2.57034C18.5428 2.81121 18.826 3.1537 18.9942 3.55476C19.1624 3.95583 19.2081 4.39758 19.1256 4.82451C19.0431 5.25145 18.836 5.64451 18.5304 5.9543C18.3248 6.16271 18.0798 6.32821 17.8095 6.44118C17.5393 6.55414 17.2492 6.61232 16.9562 6.61232C16.6632 6.61232 16.3731 6.55414 16.1029 6.44118C15.8326 6.32821 15.5876 6.16271 15.382 5.9543ZM17.9118 57.9092C18.1205 58.1144 18.2863 58.359 18.3995 58.6288C18.5126 58.8986 18.5709 59.1882 18.5709 59.4807C18.5709 59.7732 18.5126 60.0628 18.3995 60.3326C18.2863 60.6024 18.1205 60.847 17.9118 61.0523C17.4869 61.4549 16.9234 61.6793 16.3376 61.6793C15.7517 61.6793 15.1883 61.4549 14.7633 61.0523C14.4995 60.7961 14.3039 60.4782 14.1944 60.1274C14.0849 59.7766 14.0649 59.404 14.1363 59.0436C14.2076 58.6831 14.368 58.3462 14.6029 58.0633C14.8378 57.7805 15.1398 57.5607 15.4814 57.4239C15.8855 57.2615 16.3286 57.222 16.7552 57.3103C17.1817 57.3986 17.5726 57.6108 17.8786 57.9202L17.9118 57.9092ZM29.4781 12.6155H36.1064L39.4205 18.3613L36.1064 24.1071H29.4781L26.164 18.3613L29.4781 12.6155ZM24.2418 44.6751H17.6135L14.2994 38.9293L17.6135 33.1835H24.2418L27.5559 38.9293L24.2418 44.6751ZM35.1563 40.4953C34.7414 40.0835 34.507 39.5243 34.5045 38.9403C34.5024 38.4299 34.6776 37.9345 35.0004 37.5387C35.3231 37.1428 35.7734 36.8709 36.2744 36.7694C36.7755 36.6679 37.2963 36.7429 37.7481 36.9819C38.1999 37.2208 38.5548 37.6087 38.7521 38.0796C38.9495 38.5504 38.9772 39.075 38.8304 39.564C38.6837 40.0529 38.3717 40.4759 37.9475 40.7609C37.5233 41.0459 37.0133 41.1752 36.5043 41.1267C35.9953 41.0783 35.5189 40.8551 35.1563 40.4953ZM48.0152 58.3944H41.3869L38.0728 52.6486L41.3869 46.9028H48.0152L51.3293 52.6486L48.0152 58.3944ZM54.1905 26.809C53.7656 27.2116 53.2021 27.4361 52.6163 27.4361C52.0305 27.4361 51.467 27.2116 51.0421 26.809C50.7365 26.4992 50.5294 26.1062 50.4469 25.6792C50.3644 25.2523 50.4101 24.8106 50.5783 24.4095C50.7465 24.0084 51.0297 23.6659 51.3923 23.4251C51.7549 23.1842 52.1807 23.0557 52.6163 23.0557C53.0518 23.0557 53.4777 23.1842 53.8403 23.4251C54.2029 23.6659 54.4861 24.0084 54.6543 24.4095C54.8225 24.8106 54.8682 25.2523 54.7857 25.6792C54.7032 26.1062 54.4961 26.4992 54.1905 26.809Z" fill="#6F283B"/>
</svg>
