<svg width="148" height="128" viewBox="0 0 148 128" fill="none" xmlns="http://www.w3.org/2000/svg">
<g opacity="0.7">
<path d="M4.93333 117.763C7.65794 117.763 9.86667 119.959 9.86667 122.669C9.86667 125.379 7.65794 127.576 4.93333 127.576C2.20873 127.576 -9.60265e-08 125.379 -2.14481e-07 122.669C-3.32936e-07 119.959 2.20873 117.763 4.93333 117.763Z" fill="white" fill-opacity="0.5"/>
<path d="M4.93333 117.763C7.65794 117.763 9.86667 119.959 9.86667 122.669C9.86667 125.379 7.65794 127.576 4.93333 127.576C2.20873 127.576 -9.60265e-08 125.379 -2.14481e-07 122.669C-3.32936e-07 119.959 2.20873 117.763 4.93333 117.763Z" fill="url(#paint0_linear_94_198)" fill-opacity="0.2"/>
<path d="M4.93333 98.1356C7.65794 98.1356 9.86667 100.332 9.86667 103.042C9.86667 105.752 7.65794 107.949 4.93333 107.949C2.20873 107.949 -9.53952e-07 105.752 -1.07241e-06 103.042C-1.19086e-06 100.332 2.20873 98.1356 4.93333 98.1356Z" fill="white" fill-opacity="0.5"/>
<path d="M4.93333 98.1356C7.65794 98.1356 9.86667 100.332 9.86667 103.042C9.86667 105.752 7.65794 107.949 4.93333 107.949C2.20873 107.949 -9.53952e-07 105.752 -1.07241e-06 103.042C-1.19086e-06 100.332 2.20873 98.1356 4.93333 98.1356Z" fill="url(#paint1_linear_94_198)" fill-opacity="0.2"/>
<path d="M4.93333 78.5086C7.65794 78.5086 9.86666 80.7054 9.86666 83.4153C9.86666 86.1253 7.65794 88.3221 4.93333 88.3221C2.20873 88.3221 -1.81188e-06 86.1253 -1.93033e-06 83.4153C-2.04879e-06 80.7054 2.20873 78.5086 4.93333 78.5086Z" fill="white" fill-opacity="0.5"/>
<path d="M4.93333 78.5086C7.65794 78.5086 9.86666 80.7054 9.86666 83.4153C9.86666 86.1253 7.65794 88.3221 4.93333 88.3221C2.20873 88.3221 -1.81188e-06 86.1253 -1.93033e-06 83.4153C-2.04879e-06 80.7054 2.20873 78.5086 4.93333 78.5086Z" fill="url(#paint2_linear_94_198)" fill-opacity="0.2"/>
<path d="M4.93333 58.8815C7.65794 58.8815 9.86666 61.0784 9.86666 63.7883C9.86666 66.4982 7.65794 68.6951 4.93333 68.6951C2.20873 68.6951 -2.6698e-06 66.4982 -2.78826e-06 63.7883C-2.90671e-06 61.0784 2.20873 58.8815 4.93333 58.8815Z" fill="white" fill-opacity="0.5"/>
<path d="M4.93333 58.8815C7.65794 58.8815 9.86666 61.0784 9.86666 63.7883C9.86666 66.4982 7.65794 68.6951 4.93333 68.6951C2.20873 68.6951 -2.6698e-06 66.4982 -2.78826e-06 63.7883C-2.90671e-06 61.0784 2.20873 58.8815 4.93333 58.8815Z" fill="url(#paint3_linear_94_198)" fill-opacity="0.2"/>
<path d="M4.93333 39.2545C7.65793 39.2545 9.86666 41.4513 9.86666 44.1613C9.86666 46.8712 7.65793 49.068 4.93333 49.068C2.20873 49.068 -3.52773e-06 46.8712 -3.64618e-06 44.1613C-3.76464e-06 41.4513 2.20872 39.2545 4.93333 39.2545Z" fill="white" fill-opacity="0.5"/>
<path d="M4.93333 39.2545C7.65793 39.2545 9.86666 41.4513 9.86666 44.1613C9.86666 46.8712 7.65793 49.068 4.93333 49.068C2.20873 49.068 -3.52773e-06 46.8712 -3.64618e-06 44.1613C-3.76464e-06 41.4513 2.20872 39.2545 4.93333 39.2545Z" fill="url(#paint4_linear_94_198)" fill-opacity="0.2"/>
<path d="M4.93333 19.6275C7.65793 19.6275 9.86666 21.8243 9.86666 24.5342C9.86666 27.2441 7.65793 29.441 4.93333 29.441C2.20872 29.441 -4.38565e-06 27.2441 -4.50411e-06 24.5342C-4.62256e-06 21.8243 2.20872 19.6275 4.93333 19.6275Z" fill="white" fill-opacity="0.5"/>
<path d="M4.93333 19.6275C7.65793 19.6275 9.86666 21.8243 9.86666 24.5342C9.86666 27.2441 7.65793 29.441 4.93333 29.441C2.20872 29.441 -4.38565e-06 27.2441 -4.50411e-06 24.5342C-4.62256e-06 21.8243 2.20872 19.6275 4.93333 19.6275Z" fill="url(#paint5_linear_94_198)" fill-opacity="0.2"/>
<path d="M4.93333 19.6275C7.65793 19.6275 9.86666 21.8243 9.86666 24.5342C9.86666 27.2441 7.65793 29.441 4.93333 29.441C2.20872 29.441 -4.38565e-06 27.2441 -4.50411e-06 24.5342C-4.62256e-06 21.8243 2.20872 19.6275 4.93333 19.6275Z" fill="white" fill-opacity="0.5"/>
<path d="M4.93333 19.6275C7.65793 19.6275 9.86666 21.8243 9.86666 24.5342C9.86666 27.2441 7.65793 29.441 4.93333 29.441C2.20872 29.441 -4.38565e-06 27.2441 -4.50411e-06 24.5342C-4.62256e-06 21.8243 2.20872 19.6275 4.93333 19.6275Z" fill="url(#paint6_linear_94_198)" fill-opacity="0.2"/>
<path d="M4.93333 0.000411772C7.65793 0.000411653 9.86666 2.19724 9.86666 4.90717C9.86666 7.6171 7.65793 9.81393 4.93333 9.81393C2.20872 9.81393 -5.24358e-06 7.6171 -5.36203e-06 4.90717C-5.48049e-06 2.19724 2.20872 0.000411891 4.93333 0.000411772Z" fill="white" fill-opacity="0.5"/>
<path d="M4.93333 0.000411772C7.65793 0.000411653 9.86666 2.19724 9.86666 4.90717C9.86666 7.6171 7.65793 9.81393 4.93333 9.81393C2.20872 9.81393 -5.24358e-06 7.6171 -5.36203e-06 4.90717C-5.48049e-06 2.19724 2.20872 0.000411891 4.93333 0.000411772Z" fill="url(#paint7_linear_94_198)" fill-opacity="0.2"/>
<path d="M24.6667 117.763C27.3913 117.763 29.6 119.959 29.6 122.669C29.6 125.379 27.3913 127.576 24.6667 127.576C21.9421 127.576 19.7333 125.379 19.7333 122.669C19.7333 119.959 21.9421 117.763 24.6667 117.763Z" fill="white" fill-opacity="0.5"/>
<path d="M24.6667 117.763C27.3913 117.763 29.6 119.959 29.6 122.669C29.6 125.379 27.3913 127.576 24.6667 127.576C21.9421 127.576 19.7333 125.379 19.7333 122.669C19.7333 119.959 21.9421 117.763 24.6667 117.763Z" fill="url(#paint8_linear_94_198)" fill-opacity="0.2"/>
<path d="M24.6667 98.1356C27.3913 98.1356 29.6 100.332 29.6 103.042C29.6 105.752 27.3913 107.949 24.6667 107.949C21.9421 107.949 19.7333 105.752 19.7333 103.042C19.7333 100.332 21.9421 98.1356 24.6667 98.1356Z" fill="white" fill-opacity="0.5"/>
<path d="M24.6667 98.1356C27.3913 98.1356 29.6 100.332 29.6 103.042C29.6 105.752 27.3913 107.949 24.6667 107.949C21.9421 107.949 19.7333 105.752 19.7333 103.042C19.7333 100.332 21.9421 98.1356 24.6667 98.1356Z" fill="url(#paint9_linear_94_198)" fill-opacity="0.2"/>
<path d="M24.6667 78.5086C27.3913 78.5086 29.6 80.7054 29.6 83.4153C29.6 86.1253 27.3913 88.3221 24.6667 88.3221C21.9421 88.3221 19.7333 86.1253 19.7333 83.4153C19.7333 80.7054 21.9421 78.5086 24.6667 78.5086Z" fill="white" fill-opacity="0.5"/>
<path d="M24.6667 78.5086C27.3913 78.5086 29.6 80.7054 29.6 83.4153C29.6 86.1253 27.3913 88.3221 24.6667 88.3221C21.9421 88.3221 19.7333 86.1253 19.7333 83.4153C19.7333 80.7054 21.9421 78.5086 24.6667 78.5086Z" fill="url(#paint10_linear_94_198)" fill-opacity="0.2"/>
<path d="M24.6667 58.8815C27.3913 58.8815 29.6 61.0784 29.6 63.7883C29.6 66.4982 27.3913 68.6951 24.6667 68.6951C21.9421 68.6951 19.7333 66.4982 19.7333 63.7883C19.7333 61.0784 21.9421 58.8815 24.6667 58.8815Z" fill="white" fill-opacity="0.5"/>
<path d="M24.6667 58.8815C27.3913 58.8815 29.6 61.0784 29.6 63.7883C29.6 66.4982 27.3913 68.6951 24.6667 68.6951C21.9421 68.6951 19.7333 66.4982 19.7333 63.7883C19.7333 61.0784 21.9421 58.8815 24.6667 58.8815Z" fill="url(#paint11_linear_94_198)" fill-opacity="0.2"/>
<path d="M24.6667 39.2545C27.3913 39.2545 29.6 41.4513 29.6 44.1613C29.6 46.8712 27.3913 49.068 24.6667 49.068C21.9421 49.068 19.7333 46.8712 19.7333 44.1613C19.7333 41.4513 21.9421 39.2545 24.6667 39.2545Z" fill="white" fill-opacity="0.5"/>
<path d="M24.6667 39.2545C27.3913 39.2545 29.6 41.4513 29.6 44.1613C29.6 46.8712 27.3913 49.068 24.6667 49.068C21.9421 49.068 19.7333 46.8712 19.7333 44.1613C19.7333 41.4513 21.9421 39.2545 24.6667 39.2545Z" fill="url(#paint12_linear_94_198)" fill-opacity="0.2"/>
<path d="M24.6667 19.6275C27.3913 19.6275 29.6 21.8243 29.6 24.5342C29.6 27.2441 27.3913 29.441 24.6667 29.441C21.9421 29.441 19.7333 27.2441 19.7333 24.5342C19.7333 21.8243 21.9421 19.6275 24.6667 19.6275Z" fill="white" fill-opacity="0.5"/>
<path d="M24.6667 19.6275C27.3913 19.6275 29.6 21.8243 29.6 24.5342C29.6 27.2441 27.3913 29.441 24.6667 29.441C21.9421 29.441 19.7333 27.2441 19.7333 24.5342C19.7333 21.8243 21.9421 19.6275 24.6667 19.6275Z" fill="url(#paint13_linear_94_198)" fill-opacity="0.2"/>
<path d="M24.6667 19.6275C27.3913 19.6275 29.6 21.8243 29.6 24.5342C29.6 27.2441 27.3913 29.441 24.6667 29.441C21.9421 29.441 19.7333 27.2441 19.7333 24.5342C19.7333 21.8243 21.9421 19.6275 24.6667 19.6275Z" fill="white" fill-opacity="0.5"/>
<path d="M24.6667 19.6275C27.3913 19.6275 29.6 21.8243 29.6 24.5342C29.6 27.2441 27.3913 29.441 24.6667 29.441C21.9421 29.441 19.7333 27.2441 19.7333 24.5342C19.7333 21.8243 21.9421 19.6275 24.6667 19.6275Z" fill="url(#paint14_linear_94_198)" fill-opacity="0.2"/>
<path d="M24.6667 0.000410909C27.3913 0.00041079 29.6 2.19724 29.6 4.90717C29.6 7.6171 27.3913 9.81393 24.6667 9.81393C21.9421 9.81393 19.7333 7.6171 19.7333 4.90717C19.7333 2.19724 21.9421 0.000411028 24.6667 0.000410909Z" fill="white" fill-opacity="0.5"/>
<path d="M24.6667 0.000410909C27.3913 0.00041079 29.6 2.19724 29.6 4.90717C29.6 7.6171 27.3913 9.81393 24.6667 9.81393C21.9421 9.81393 19.7333 7.6171 19.7333 4.90717C19.7333 2.19724 21.9421 0.000411028 24.6667 0.000410909Z" fill="url(#paint15_linear_94_198)" fill-opacity="0.2"/>
<path d="M44.4 117.763C47.1246 117.763 49.3333 119.959 49.3333 122.669C49.3333 125.379 47.1246 127.576 44.4 127.576C41.6754 127.576 39.4667 125.379 39.4667 122.669C39.4667 119.959 41.6754 117.763 44.4 117.763Z" fill="white" fill-opacity="0.5"/>
<path d="M44.4 117.763C47.1246 117.763 49.3333 119.959 49.3333 122.669C49.3333 125.379 47.1246 127.576 44.4 127.576C41.6754 127.576 39.4667 125.379 39.4667 122.669C39.4667 119.959 41.6754 117.763 44.4 117.763Z" fill="url(#paint16_linear_94_198)" fill-opacity="0.2"/>
<path d="M44.4 98.1356C47.1246 98.1356 49.3333 100.332 49.3333 103.042C49.3333 105.752 47.1246 107.949 44.4 107.949C41.6754 107.949 39.4667 105.752 39.4667 103.042C39.4667 100.332 41.6754 98.1356 44.4 98.1356Z" fill="white" fill-opacity="0.5"/>
<path d="M44.4 98.1356C47.1246 98.1356 49.3333 100.332 49.3333 103.042C49.3333 105.752 47.1246 107.949 44.4 107.949C41.6754 107.949 39.4667 105.752 39.4667 103.042C39.4667 100.332 41.6754 98.1356 44.4 98.1356Z" fill="url(#paint17_linear_94_198)" fill-opacity="0.2"/>
<path d="M44.4 78.5086C47.1246 78.5086 49.3333 80.7054 49.3333 83.4153C49.3333 86.1253 47.1246 88.3221 44.4 88.3221C41.6754 88.3221 39.4667 86.1253 39.4667 83.4153C39.4667 80.7054 41.6754 78.5086 44.4 78.5086Z" fill="white" fill-opacity="0.5"/>
<path d="M44.4 78.5086C47.1246 78.5086 49.3333 80.7054 49.3333 83.4153C49.3333 86.1253 47.1246 88.3221 44.4 88.3221C41.6754 88.3221 39.4667 86.1253 39.4667 83.4153C39.4667 80.7054 41.6754 78.5086 44.4 78.5086Z" fill="url(#paint18_linear_94_198)" fill-opacity="0.2"/>
<path d="M44.4 58.8815C47.1246 58.8815 49.3333 61.0784 49.3333 63.7883C49.3333 66.4982 47.1246 68.6951 44.4 68.6951C41.6754 68.6951 39.4667 66.4982 39.4667 63.7883C39.4667 61.0784 41.6754 58.8815 44.4 58.8815Z" fill="white" fill-opacity="0.5"/>
<path d="M44.4 58.8815C47.1246 58.8815 49.3333 61.0784 49.3333 63.7883C49.3333 66.4982 47.1246 68.6951 44.4 68.6951C41.6754 68.6951 39.4667 66.4982 39.4667 63.7883C39.4667 61.0784 41.6754 58.8815 44.4 58.8815Z" fill="url(#paint19_linear_94_198)" fill-opacity="0.2"/>
<path d="M44.4 39.2545C47.1246 39.2545 49.3333 41.4513 49.3333 44.1613C49.3333 46.8712 47.1246 49.068 44.4 49.068C41.6754 49.068 39.4667 46.8712 39.4667 44.1613C39.4667 41.4513 41.6754 39.2545 44.4 39.2545Z" fill="white" fill-opacity="0.5"/>
<path d="M44.4 39.2545C47.1246 39.2545 49.3333 41.4513 49.3333 44.1613C49.3333 46.8712 47.1246 49.068 44.4 49.068C41.6754 49.068 39.4667 46.8712 39.4667 44.1613C39.4667 41.4513 41.6754 39.2545 44.4 39.2545Z" fill="url(#paint20_linear_94_198)" fill-opacity="0.2"/>
<path d="M44.4 19.6275C47.1246 19.6275 49.3333 21.8243 49.3333 24.5342C49.3333 27.2441 47.1246 29.441 44.4 29.441C41.6754 29.441 39.4667 27.2441 39.4667 24.5342C39.4667 21.8243 41.6754 19.6275 44.4 19.6275Z" fill="white" fill-opacity="0.5"/>
<path d="M44.4 19.6275C47.1246 19.6275 49.3333 21.8243 49.3333 24.5342C49.3333 27.2441 47.1246 29.441 44.4 29.441C41.6754 29.441 39.4667 27.2441 39.4667 24.5342C39.4667 21.8243 41.6754 19.6275 44.4 19.6275Z" fill="url(#paint21_linear_94_198)" fill-opacity="0.2"/>
<path d="M44.4 19.6275C47.1246 19.6275 49.3333 21.8243 49.3333 24.5342C49.3333 27.2441 47.1246 29.441 44.4 29.441C41.6754 29.441 39.4667 27.2441 39.4667 24.5342C39.4667 21.8243 41.6754 19.6275 44.4 19.6275Z" fill="white" fill-opacity="0.5"/>
<path d="M44.4 19.6275C47.1246 19.6275 49.3333 21.8243 49.3333 24.5342C49.3333 27.2441 47.1246 29.441 44.4 29.441C41.6754 29.441 39.4667 27.2441 39.4667 24.5342C39.4667 21.8243 41.6754 19.6275 44.4 19.6275Z" fill="url(#paint22_linear_94_198)" fill-opacity="0.2"/>
<path d="M44.4 0.000410047C47.1246 0.000409927 49.3333 2.19724 49.3333 4.90717C49.3333 7.6171 47.1246 9.81393 44.4 9.81393C41.6754 9.81393 39.4667 7.6171 39.4667 4.90717C39.4667 2.19724 41.6754 0.000410166 44.4 0.000410047Z" fill="white" fill-opacity="0.5"/>
<path d="M44.4 0.000410047C47.1246 0.000409927 49.3333 2.19724 49.3333 4.90717C49.3333 7.6171 47.1246 9.81393 44.4 9.81393C41.6754 9.81393 39.4667 7.6171 39.4667 4.90717C39.4667 2.19724 41.6754 0.000410166 44.4 0.000410047Z" fill="url(#paint23_linear_94_198)" fill-opacity="0.2"/>
<path d="M64.1333 117.763C66.8579 117.763 69.0667 119.959 69.0667 122.669C69.0667 125.379 66.8579 127.576 64.1333 127.576C61.4087 127.576 59.2 125.379 59.2 122.669C59.2 119.959 61.4087 117.763 64.1333 117.763Z" fill="white" fill-opacity="0.5"/>
<path d="M64.1333 117.763C66.8579 117.763 69.0667 119.959 69.0667 122.669C69.0667 125.379 66.8579 127.576 64.1333 127.576C61.4087 127.576 59.2 125.379 59.2 122.669C59.2 119.959 61.4087 117.763 64.1333 117.763Z" fill="url(#paint24_linear_94_198)" fill-opacity="0.2"/>
<path d="M64.1333 98.1356C66.8579 98.1356 69.0667 100.332 69.0667 103.042C69.0667 105.752 66.8579 107.949 64.1333 107.949C61.4087 107.949 59.2 105.752 59.2 103.042C59.2 100.332 61.4087 98.1356 64.1333 98.1356Z" fill="white" fill-opacity="0.5"/>
<path d="M64.1333 98.1356C66.8579 98.1356 69.0667 100.332 69.0667 103.042C69.0667 105.752 66.8579 107.949 64.1333 107.949C61.4087 107.949 59.2 105.752 59.2 103.042C59.2 100.332 61.4087 98.1356 64.1333 98.1356Z" fill="url(#paint25_linear_94_198)" fill-opacity="0.2"/>
<path d="M64.1333 78.5086C66.8579 78.5086 69.0667 80.7054 69.0667 83.4153C69.0667 86.1253 66.8579 88.3221 64.1333 88.3221C61.4087 88.3221 59.2 86.1253 59.2 83.4153C59.2 80.7054 61.4087 78.5086 64.1333 78.5086Z" fill="white" fill-opacity="0.5"/>
<path d="M64.1333 78.5086C66.8579 78.5086 69.0667 80.7054 69.0667 83.4153C69.0667 86.1253 66.8579 88.3221 64.1333 88.3221C61.4087 88.3221 59.2 86.1253 59.2 83.4153C59.2 80.7054 61.4087 78.5086 64.1333 78.5086Z" fill="url(#paint26_linear_94_198)" fill-opacity="0.2"/>
<path d="M64.1333 58.8815C66.8579 58.8815 69.0667 61.0784 69.0667 63.7883C69.0667 66.4982 66.8579 68.6951 64.1333 68.6951C61.4087 68.6951 59.2 66.4982 59.2 63.7883C59.2 61.0784 61.4087 58.8815 64.1333 58.8815Z" fill="white" fill-opacity="0.5"/>
<path d="M64.1333 58.8815C66.8579 58.8815 69.0667 61.0784 69.0667 63.7883C69.0667 66.4982 66.8579 68.6951 64.1333 68.6951C61.4087 68.6951 59.2 66.4982 59.2 63.7883C59.2 61.0784 61.4087 58.8815 64.1333 58.8815Z" fill="url(#paint27_linear_94_198)" fill-opacity="0.2"/>
<path d="M64.1333 39.2545C66.8579 39.2545 69.0667 41.4513 69.0667 44.1613C69.0667 46.8712 66.8579 49.068 64.1333 49.068C61.4087 49.068 59.2 46.8712 59.2 44.1613C59.2 41.4513 61.4087 39.2545 64.1333 39.2545Z" fill="white" fill-opacity="0.5"/>
<path d="M64.1333 39.2545C66.8579 39.2545 69.0667 41.4513 69.0667 44.1613C69.0667 46.8712 66.8579 49.068 64.1333 49.068C61.4087 49.068 59.2 46.8712 59.2 44.1613C59.2 41.4513 61.4087 39.2545 64.1333 39.2545Z" fill="url(#paint28_linear_94_198)" fill-opacity="0.2"/>
<path d="M64.1333 19.6275C66.8579 19.6275 69.0667 21.8243 69.0667 24.5342C69.0667 27.2441 66.8579 29.441 64.1333 29.441C61.4087 29.441 59.2 27.2441 59.2 24.5342C59.2 21.8243 61.4087 19.6275 64.1333 19.6275Z" fill="white" fill-opacity="0.5"/>
<path d="M64.1333 19.6275C66.8579 19.6275 69.0667 21.8243 69.0667 24.5342C69.0667 27.2441 66.8579 29.441 64.1333 29.441C61.4087 29.441 59.2 27.2441 59.2 24.5342C59.2 21.8243 61.4087 19.6275 64.1333 19.6275Z" fill="url(#paint29_linear_94_198)" fill-opacity="0.2"/>
<path d="M64.1333 19.6275C66.8579 19.6275 69.0667 21.8243 69.0667 24.5342C69.0667 27.2441 66.8579 29.441 64.1333 29.441C61.4087 29.441 59.2 27.2441 59.2 24.5342C59.2 21.8243 61.4087 19.6275 64.1333 19.6275Z" fill="white" fill-opacity="0.5"/>
<path d="M64.1333 19.6275C66.8579 19.6275 69.0667 21.8243 69.0667 24.5342C69.0667 27.2441 66.8579 29.441 64.1333 29.441C61.4087 29.441 59.2 27.2441 59.2 24.5342C59.2 21.8243 61.4087 19.6275 64.1333 19.6275Z" fill="url(#paint30_linear_94_198)" fill-opacity="0.2"/>
<path d="M64.1333 0.000409184C66.8579 0.000409065 69.0667 2.19724 69.0667 4.90717C69.0667 7.6171 66.8579 9.81393 64.1333 9.81393C61.4087 9.81393 59.2 7.6171 59.2 4.90717C59.2 2.19724 61.4087 0.000409303 64.1333 0.000409184Z" fill="white" fill-opacity="0.5"/>
<path d="M64.1333 0.000409184C66.8579 0.000409065 69.0667 2.19724 69.0667 4.90717C69.0667 7.6171 66.8579 9.81393 64.1333 9.81393C61.4087 9.81393 59.2 7.6171 59.2 4.90717C59.2 2.19724 61.4087 0.000409303 64.1333 0.000409184Z" fill="url(#paint31_linear_94_198)" fill-opacity="0.2"/>
<path d="M83.8667 117.763C86.5913 117.763 88.8 119.959 88.8 122.669C88.8 125.379 86.5913 127.576 83.8667 127.576C81.1421 127.576 78.9333 125.379 78.9333 122.669C78.9333 119.959 81.1421 117.763 83.8667 117.763Z" fill="white" fill-opacity="0.5"/>
<path d="M83.8667 117.763C86.5913 117.763 88.8 119.959 88.8 122.669C88.8 125.379 86.5913 127.576 83.8667 127.576C81.1421 127.576 78.9333 125.379 78.9333 122.669C78.9333 119.959 81.1421 117.763 83.8667 117.763Z" fill="url(#paint32_linear_94_198)" fill-opacity="0.2"/>
<path d="M83.8667 98.1356C86.5913 98.1356 88.8 100.332 88.8 103.042C88.8 105.752 86.5913 107.949 83.8667 107.949C81.1421 107.949 78.9333 105.752 78.9333 103.042C78.9333 100.332 81.1421 98.1356 83.8667 98.1356Z" fill="white" fill-opacity="0.5"/>
<path d="M83.8667 98.1356C86.5913 98.1356 88.8 100.332 88.8 103.042C88.8 105.752 86.5913 107.949 83.8667 107.949C81.1421 107.949 78.9333 105.752 78.9333 103.042C78.9333 100.332 81.1421 98.1356 83.8667 98.1356Z" fill="url(#paint33_linear_94_198)" fill-opacity="0.2"/>
<path d="M83.8667 78.5086C86.5913 78.5086 88.8 80.7054 88.8 83.4153C88.8 86.1253 86.5913 88.3221 83.8667 88.3221C81.1421 88.3221 78.9333 86.1253 78.9333 83.4153C78.9333 80.7054 81.1421 78.5086 83.8667 78.5086Z" fill="white" fill-opacity="0.5"/>
<path d="M83.8667 78.5086C86.5913 78.5086 88.8 80.7054 88.8 83.4153C88.8 86.1253 86.5913 88.3221 83.8667 88.3221C81.1421 88.3221 78.9333 86.1253 78.9333 83.4153C78.9333 80.7054 81.1421 78.5086 83.8667 78.5086Z" fill="url(#paint34_linear_94_198)" fill-opacity="0.2"/>
<path d="M83.8667 58.8815C86.5913 58.8815 88.8 61.0784 88.8 63.7883C88.8 66.4982 86.5913 68.695 83.8667 68.695C81.1421 68.695 78.9333 66.4982 78.9333 63.7883C78.9333 61.0784 81.1421 58.8815 83.8667 58.8815Z" fill="white" fill-opacity="0.5"/>
<path d="M83.8667 58.8815C86.5913 58.8815 88.8 61.0784 88.8 63.7883C88.8 66.4982 86.5913 68.695 83.8667 68.695C81.1421 68.695 78.9333 66.4982 78.9333 63.7883C78.9333 61.0784 81.1421 58.8815 83.8667 58.8815Z" fill="url(#paint35_linear_94_198)" fill-opacity="0.2"/>
<path d="M83.8667 39.2545C86.5913 39.2545 88.8 41.4513 88.8 44.1613C88.8 46.8712 86.5913 49.068 83.8667 49.068C81.1421 49.068 78.9333 46.8712 78.9333 44.1613C78.9333 41.4513 81.1421 39.2545 83.8667 39.2545Z" fill="white" fill-opacity="0.5"/>
<path d="M83.8667 39.2545C86.5913 39.2545 88.8 41.4513 88.8 44.1613C88.8 46.8712 86.5913 49.068 83.8667 49.068C81.1421 49.068 78.9333 46.8712 78.9333 44.1613C78.9333 41.4513 81.1421 39.2545 83.8667 39.2545Z" fill="url(#paint36_linear_94_198)" fill-opacity="0.2"/>
<path d="M83.8667 19.6275C86.5913 19.6275 88.8 21.8243 88.8 24.5342C88.8 27.2441 86.5913 29.441 83.8667 29.441C81.1421 29.441 78.9333 27.2441 78.9333 24.5342C78.9333 21.8243 81.1421 19.6275 83.8667 19.6275Z" fill="white" fill-opacity="0.5"/>
<path d="M83.8667 19.6275C86.5913 19.6275 88.8 21.8243 88.8 24.5342C88.8 27.2441 86.5913 29.441 83.8667 29.441C81.1421 29.441 78.9333 27.2441 78.9333 24.5342C78.9333 21.8243 81.1421 19.6275 83.8667 19.6275Z" fill="url(#paint37_linear_94_198)" fill-opacity="0.2"/>
<path d="M83.8667 19.6275C86.5913 19.6275 88.8 21.8243 88.8 24.5342C88.8 27.2441 86.5913 29.441 83.8667 29.441C81.1421 29.441 78.9333 27.2441 78.9333 24.5342C78.9333 21.8243 81.1421 19.6275 83.8667 19.6275Z" fill="white" fill-opacity="0.5"/>
<path d="M83.8667 19.6275C86.5913 19.6275 88.8 21.8243 88.8 24.5342C88.8 27.2441 86.5913 29.441 83.8667 29.441C81.1421 29.441 78.9333 27.2441 78.9333 24.5342C78.9333 21.8243 81.1421 19.6275 83.8667 19.6275Z" fill="url(#paint38_linear_94_198)" fill-opacity="0.2"/>
<path d="M83.8667 0.000408321C86.5913 0.000408202 88.8 2.19724 88.8 4.90717C88.8 7.6171 86.5913 9.81393 83.8667 9.81393C81.1421 9.81393 78.9333 7.6171 78.9333 4.90717C78.9333 2.19724 81.1421 0.00040844 83.8667 0.000408321Z" fill="white" fill-opacity="0.5"/>
<path d="M83.8667 0.000408321C86.5913 0.000408202 88.8 2.19724 88.8 4.90717C88.8 7.6171 86.5913 9.81393 83.8667 9.81393C81.1421 9.81393 78.9333 7.6171 78.9333 4.90717C78.9333 2.19724 81.1421 0.00040844 83.8667 0.000408321Z" fill="url(#paint39_linear_94_198)" fill-opacity="0.2"/>
<path d="M103.6 117.763C106.325 117.763 108.533 119.959 108.533 122.669C108.533 125.379 106.325 127.576 103.6 127.576C100.875 127.576 98.6667 125.379 98.6667 122.669C98.6667 119.959 100.875 117.763 103.6 117.763Z" fill="white" fill-opacity="0.5"/>
<path d="M103.6 117.763C106.325 117.763 108.533 119.959 108.533 122.669C108.533 125.379 106.325 127.576 103.6 127.576C100.875 127.576 98.6667 125.379 98.6667 122.669C98.6667 119.959 100.875 117.763 103.6 117.763Z" fill="url(#paint40_linear_94_198)" fill-opacity="0.2"/>
<path d="M103.6 98.1356C106.325 98.1356 108.533 100.332 108.533 103.042C108.533 105.752 106.325 107.949 103.6 107.949C100.875 107.949 98.6667 105.752 98.6667 103.042C98.6667 100.332 100.875 98.1356 103.6 98.1356Z" fill="white" fill-opacity="0.5"/>
<path d="M103.6 98.1356C106.325 98.1356 108.533 100.332 108.533 103.042C108.533 105.752 106.325 107.949 103.6 107.949C100.875 107.949 98.6667 105.752 98.6667 103.042C98.6667 100.332 100.875 98.1356 103.6 98.1356Z" fill="url(#paint41_linear_94_198)" fill-opacity="0.2"/>
<path d="M103.6 78.5086C106.325 78.5086 108.533 80.7054 108.533 83.4153C108.533 86.1253 106.325 88.3221 103.6 88.3221C100.875 88.3221 98.6667 86.1253 98.6667 83.4153C98.6667 80.7054 100.875 78.5086 103.6 78.5086Z" fill="white" fill-opacity="0.5"/>
<path d="M103.6 78.5086C106.325 78.5086 108.533 80.7054 108.533 83.4153C108.533 86.1253 106.325 88.3221 103.6 88.3221C100.875 88.3221 98.6667 86.1253 98.6667 83.4153C98.6667 80.7054 100.875 78.5086 103.6 78.5086Z" fill="url(#paint42_linear_94_198)" fill-opacity="0.2"/>
<path d="M103.6 58.8815C106.325 58.8815 108.533 61.0784 108.533 63.7883C108.533 66.4982 106.325 68.695 103.6 68.695C100.875 68.695 98.6667 66.4982 98.6667 63.7883C98.6667 61.0784 100.875 58.8815 103.6 58.8815Z" fill="white" fill-opacity="0.5"/>
<path d="M103.6 58.8815C106.325 58.8815 108.533 61.0784 108.533 63.7883C108.533 66.4982 106.325 68.695 103.6 68.695C100.875 68.695 98.6667 66.4982 98.6667 63.7883C98.6667 61.0784 100.875 58.8815 103.6 58.8815Z" fill="url(#paint43_linear_94_198)" fill-opacity="0.2"/>
<path d="M103.6 39.2545C106.325 39.2545 108.533 41.4513 108.533 44.1613C108.533 46.8712 106.325 49.068 103.6 49.068C100.875 49.068 98.6667 46.8712 98.6667 44.1613C98.6667 41.4513 100.875 39.2545 103.6 39.2545Z" fill="white" fill-opacity="0.5"/>
<path d="M103.6 39.2545C106.325 39.2545 108.533 41.4513 108.533 44.1613C108.533 46.8712 106.325 49.068 103.6 49.068C100.875 49.068 98.6667 46.8712 98.6667 44.1613C98.6667 41.4513 100.875 39.2545 103.6 39.2545Z" fill="url(#paint44_linear_94_198)" fill-opacity="0.2"/>
<path d="M103.6 19.6275C106.325 19.6275 108.533 21.8243 108.533 24.5342C108.533 27.2441 106.325 29.441 103.6 29.441C100.875 29.441 98.6667 27.2441 98.6667 24.5342C98.6667 21.8243 100.875 19.6275 103.6 19.6275Z" fill="white" fill-opacity="0.5"/>
<path d="M103.6 19.6275C106.325 19.6275 108.533 21.8243 108.533 24.5342C108.533 27.2441 106.325 29.441 103.6 29.441C100.875 29.441 98.6667 27.2441 98.6667 24.5342C98.6667 21.8243 100.875 19.6275 103.6 19.6275Z" fill="url(#paint45_linear_94_198)" fill-opacity="0.2"/>
<path d="M103.6 19.6275C106.325 19.6275 108.533 21.8243 108.533 24.5342C108.533 27.2441 106.325 29.441 103.6 29.441C100.875 29.441 98.6667 27.2441 98.6667 24.5342C98.6667 21.8243 100.875 19.6275 103.6 19.6275Z" fill="white" fill-opacity="0.5"/>
<path d="M103.6 19.6275C106.325 19.6275 108.533 21.8243 108.533 24.5342C108.533 27.2441 106.325 29.441 103.6 29.441C100.875 29.441 98.6667 27.2441 98.6667 24.5342C98.6667 21.8243 100.875 19.6275 103.6 19.6275Z" fill="url(#paint46_linear_94_198)" fill-opacity="0.2"/>
<path d="M103.6 0.000407459C106.325 0.00040734 108.533 2.19724 108.533 4.90717C108.533 7.6171 106.325 9.81393 103.6 9.81393C100.875 9.81393 98.6667 7.6171 98.6667 4.90717C98.6667 2.19724 100.875 0.000407578 103.6 0.000407459Z" fill="white" fill-opacity="0.5"/>
<path d="M103.6 0.000407459C106.325 0.00040734 108.533 2.19724 108.533 4.90717C108.533 7.6171 106.325 9.81393 103.6 9.81393C100.875 9.81393 98.6667 7.6171 98.6667 4.90717C98.6667 2.19724 100.875 0.000407578 103.6 0.000407459Z" fill="url(#paint47_linear_94_198)" fill-opacity="0.2"/>
<path d="M123.333 117.763C126.058 117.763 128.267 119.959 128.267 122.669C128.267 125.379 126.058 127.576 123.333 127.576C120.609 127.576 118.4 125.379 118.4 122.669C118.4 119.959 120.609 117.763 123.333 117.763Z" fill="white" fill-opacity="0.5"/>
<path d="M123.333 117.763C126.058 117.763 128.267 119.959 128.267 122.669C128.267 125.379 126.058 127.576 123.333 127.576C120.609 127.576 118.4 125.379 118.4 122.669C118.4 119.959 120.609 117.763 123.333 117.763Z" fill="url(#paint48_linear_94_198)" fill-opacity="0.2"/>
<path d="M123.333 98.1356C126.058 98.1356 128.267 100.332 128.267 103.042C128.267 105.752 126.058 107.949 123.333 107.949C120.609 107.949 118.4 105.752 118.4 103.042C118.4 100.332 120.609 98.1356 123.333 98.1356Z" fill="white" fill-opacity="0.5"/>
<path d="M123.333 98.1356C126.058 98.1356 128.267 100.332 128.267 103.042C128.267 105.752 126.058 107.949 123.333 107.949C120.609 107.949 118.4 105.752 118.4 103.042C118.4 100.332 120.609 98.1356 123.333 98.1356Z" fill="url(#paint49_linear_94_198)" fill-opacity="0.2"/>
<path d="M123.333 78.5086C126.058 78.5086 128.267 80.7054 128.267 83.4153C128.267 86.1253 126.058 88.3221 123.333 88.3221C120.609 88.3221 118.4 86.1253 118.4 83.4153C118.4 80.7054 120.609 78.5086 123.333 78.5086Z" fill="white" fill-opacity="0.5"/>
<path d="M123.333 78.5086C126.058 78.5086 128.267 80.7054 128.267 83.4153C128.267 86.1253 126.058 88.3221 123.333 88.3221C120.609 88.3221 118.4 86.1253 118.4 83.4153C118.4 80.7054 120.609 78.5086 123.333 78.5086Z" fill="url(#paint50_linear_94_198)" fill-opacity="0.2"/>
<path d="M123.333 58.8815C126.058 58.8815 128.267 61.0784 128.267 63.7883C128.267 66.4982 126.058 68.695 123.333 68.695C120.609 68.695 118.4 66.4982 118.4 63.7883C118.4 61.0784 120.609 58.8815 123.333 58.8815Z" fill="white" fill-opacity="0.5"/>
<path d="M123.333 58.8815C126.058 58.8815 128.267 61.0784 128.267 63.7883C128.267 66.4982 126.058 68.695 123.333 68.695C120.609 68.695 118.4 66.4982 118.4 63.7883C118.4 61.0784 120.609 58.8815 123.333 58.8815Z" fill="url(#paint51_linear_94_198)" fill-opacity="0.2"/>
<path d="M123.333 39.2545C126.058 39.2545 128.267 41.4513 128.267 44.1612C128.267 46.8712 126.058 49.068 123.333 49.068C120.609 49.068 118.4 46.8712 118.4 44.1612C118.4 41.4513 120.609 39.2545 123.333 39.2545Z" fill="white" fill-opacity="0.5"/>
<path d="M123.333 39.2545C126.058 39.2545 128.267 41.4513 128.267 44.1612C128.267 46.8712 126.058 49.068 123.333 49.068C120.609 49.068 118.4 46.8712 118.4 44.1612C118.4 41.4513 120.609 39.2545 123.333 39.2545Z" fill="url(#paint52_linear_94_198)" fill-opacity="0.2"/>
<path d="M123.333 19.6275C126.058 19.6275 128.267 21.8243 128.267 24.5342C128.267 27.2441 126.058 29.441 123.333 29.441C120.609 29.441 118.4 27.2441 118.4 24.5342C118.4 21.8243 120.609 19.6275 123.333 19.6275Z" fill="white" fill-opacity="0.5"/>
<path d="M123.333 19.6275C126.058 19.6275 128.267 21.8243 128.267 24.5342C128.267 27.2441 126.058 29.441 123.333 29.441C120.609 29.441 118.4 27.2441 118.4 24.5342C118.4 21.8243 120.609 19.6275 123.333 19.6275Z" fill="url(#paint53_linear_94_198)" fill-opacity="0.2"/>
<path d="M123.333 19.6275C126.058 19.6275 128.267 21.8243 128.267 24.5342C128.267 27.2441 126.058 29.441 123.333 29.441C120.609 29.441 118.4 27.2441 118.4 24.5342C118.4 21.8243 120.609 19.6275 123.333 19.6275Z" fill="white" fill-opacity="0.5"/>
<path d="M123.333 19.6275C126.058 19.6275 128.267 21.8243 128.267 24.5342C128.267 27.2441 126.058 29.441 123.333 29.441C120.609 29.441 118.4 27.2441 118.4 24.5342C118.4 21.8243 120.609 19.6275 123.333 19.6275Z" fill="url(#paint54_linear_94_198)" fill-opacity="0.2"/>
<path d="M123.333 0.000406596C126.058 0.000406477 128.267 2.19724 128.267 4.90717C128.267 7.6171 126.058 9.81393 123.333 9.81393C120.609 9.81393 118.4 7.6171 118.4 4.90717C118.4 2.19724 120.609 0.000406715 123.333 0.000406596Z" fill="white" fill-opacity="0.5"/>
<path d="M123.333 0.000406596C126.058 0.000406477 128.267 2.19724 128.267 4.90717C128.267 7.6171 126.058 9.81393 123.333 9.81393C120.609 9.81393 118.4 7.6171 118.4 4.90717C118.4 2.19724 120.609 0.000406715 123.333 0.000406596Z" fill="url(#paint55_linear_94_198)" fill-opacity="0.2"/>
<path d="M143.067 117.763C145.791 117.763 148 119.959 148 122.669C148 125.379 145.791 127.576 143.067 127.576C140.342 127.576 138.133 125.379 138.133 122.669C138.133 119.959 140.342 117.763 143.067 117.763Z" fill="white" fill-opacity="0.5"/>
<path d="M143.067 117.763C145.791 117.763 148 119.959 148 122.669C148 125.379 145.791 127.576 143.067 127.576C140.342 127.576 138.133 125.379 138.133 122.669C138.133 119.959 140.342 117.763 143.067 117.763Z" fill="url(#paint56_linear_94_198)" fill-opacity="0.2"/>
<path d="M143.067 98.1356C145.791 98.1356 148 100.332 148 103.042C148 105.752 145.791 107.949 143.067 107.949C140.342 107.949 138.133 105.752 138.133 103.042C138.133 100.332 140.342 98.1356 143.067 98.1356Z" fill="white" fill-opacity="0.5"/>
<path d="M143.067 98.1356C145.791 98.1356 148 100.332 148 103.042C148 105.752 145.791 107.949 143.067 107.949C140.342 107.949 138.133 105.752 138.133 103.042C138.133 100.332 140.342 98.1356 143.067 98.1356Z" fill="url(#paint57_linear_94_198)" fill-opacity="0.2"/>
<path d="M143.067 78.5086C145.791 78.5086 148 80.7054 148 83.4153C148 86.1253 145.791 88.3221 143.067 88.3221C140.342 88.3221 138.133 86.1253 138.133 83.4153C138.133 80.7054 140.342 78.5086 143.067 78.5086Z" fill="white" fill-opacity="0.5"/>
<path d="M143.067 78.5086C145.791 78.5086 148 80.7054 148 83.4153C148 86.1253 145.791 88.3221 143.067 88.3221C140.342 88.3221 138.133 86.1253 138.133 83.4153C138.133 80.7054 140.342 78.5086 143.067 78.5086Z" fill="url(#paint58_linear_94_198)" fill-opacity="0.2"/>
<path d="M143.067 58.8815C145.791 58.8815 148 61.0784 148 63.7883C148 66.4982 145.791 68.695 143.067 68.695C140.342 68.695 138.133 66.4982 138.133 63.7883C138.133 61.0784 140.342 58.8815 143.067 58.8815Z" fill="white" fill-opacity="0.5"/>
<path d="M143.067 58.8815C145.791 58.8815 148 61.0784 148 63.7883C148 66.4982 145.791 68.695 143.067 68.695C140.342 68.695 138.133 66.4982 138.133 63.7883C138.133 61.0784 140.342 58.8815 143.067 58.8815Z" fill="url(#paint59_linear_94_198)" fill-opacity="0.2"/>
<path d="M143.067 39.2545C145.791 39.2545 148 41.4513 148 44.1612C148 46.8712 145.791 49.068 143.067 49.068C140.342 49.068 138.133 46.8712 138.133 44.1612C138.133 41.4513 140.342 39.2545 143.067 39.2545Z" fill="white" fill-opacity="0.5"/>
<path d="M143.067 39.2545C145.791 39.2545 148 41.4513 148 44.1612C148 46.8712 145.791 49.068 143.067 49.068C140.342 49.068 138.133 46.8712 138.133 44.1612C138.133 41.4513 140.342 39.2545 143.067 39.2545Z" fill="url(#paint60_linear_94_198)" fill-opacity="0.2"/>
<path d="M143.067 19.6275C145.791 19.6275 148 21.8243 148 24.5342C148 27.2441 145.791 29.441 143.067 29.441C140.342 29.441 138.133 27.2441 138.133 24.5342C138.133 21.8243 140.342 19.6275 143.067 19.6275Z" fill="white" fill-opacity="0.5"/>
<path d="M143.067 19.6275C145.791 19.6275 148 21.8243 148 24.5342C148 27.2441 145.791 29.441 143.067 29.441C140.342 29.441 138.133 27.2441 138.133 24.5342C138.133 21.8243 140.342 19.6275 143.067 19.6275Z" fill="url(#paint61_linear_94_198)" fill-opacity="0.2"/>
<path d="M143.067 19.6275C145.791 19.6275 148 21.8243 148 24.5342C148 27.2441 145.791 29.441 143.067 29.441C140.342 29.441 138.133 27.2441 138.133 24.5342C138.133 21.8243 140.342 19.6275 143.067 19.6275Z" fill="white" fill-opacity="0.5"/>
<path d="M143.067 19.6275C145.791 19.6275 148 21.8243 148 24.5342C148 27.2441 145.791 29.441 143.067 29.441C140.342 29.441 138.133 27.2441 138.133 24.5342C138.133 21.8243 140.342 19.6275 143.067 19.6275Z" fill="url(#paint62_linear_94_198)" fill-opacity="0.2"/>
<path d="M143.067 0.000405734C145.791 0.000405615 148 2.19724 148 4.90717C148 7.6171 145.791 9.81393 143.067 9.81393C140.342 9.81393 138.133 7.6171 138.133 4.90717C138.133 2.19724 140.342 0.000405853 143.067 0.000405734Z" fill="white" fill-opacity="0.5"/>
<path d="M143.067 0.000405734C145.791 0.000405615 148 2.19724 148 4.90717C148 7.6171 145.791 9.81393 143.067 9.81393C140.342 9.81393 138.133 7.6171 138.133 4.90717C138.133 2.19724 140.342 0.000405853 143.067 0.000405734Z" fill="url(#paint63_linear_94_198)" fill-opacity="0.2"/>
</g>
<defs>
<linearGradient id="paint0_linear_94_198" x1="74" y1="127.576" x2="74" y2="-293.424" gradientUnits="userSpaceOnUse">
<stop stop-color="#E8F5F9"/>
<stop offset="0.505208" stop-color="white"/>
<stop offset="1" stop-color="#E8F5F9"/>
</linearGradient>
<linearGradient id="paint1_linear_94_198" x1="74" y1="127.576" x2="74" y2="-293.424" gradientUnits="userSpaceOnUse">
<stop stop-color="#E8F5F9"/>
<stop offset="0.505208" stop-color="white"/>
<stop offset="1" stop-color="#E8F5F9"/>
</linearGradient>
<linearGradient id="paint2_linear_94_198" x1="74" y1="127.576" x2="74" y2="-293.424" gradientUnits="userSpaceOnUse">
<stop stop-color="#E8F5F9"/>
<stop offset="0.505208" stop-color="white"/>
<stop offset="1" stop-color="#E8F5F9"/>
</linearGradient>
<linearGradient id="paint3_linear_94_198" x1="74" y1="127.576" x2="74" y2="-293.424" gradientUnits="userSpaceOnUse">
<stop stop-color="#E8F5F9"/>
<stop offset="0.505208" stop-color="white"/>
<stop offset="1" stop-color="#E8F5F9"/>
</linearGradient>
<linearGradient id="paint4_linear_94_198" x1="74" y1="127.576" x2="74" y2="-293.424" gradientUnits="userSpaceOnUse">
<stop stop-color="#E8F5F9"/>
<stop offset="0.505208" stop-color="white"/>
<stop offset="1" stop-color="#E8F5F9"/>
</linearGradient>
<linearGradient id="paint5_linear_94_198" x1="74" y1="127.576" x2="74" y2="-293.424" gradientUnits="userSpaceOnUse">
<stop stop-color="#E8F5F9"/>
<stop offset="0.505208" stop-color="white"/>
<stop offset="1" stop-color="#E8F5F9"/>
</linearGradient>
<linearGradient id="paint6_linear_94_198" x1="74" y1="127.576" x2="74" y2="-293.424" gradientUnits="userSpaceOnUse">
<stop stop-color="#E8F5F9"/>
<stop offset="0.505208" stop-color="white"/>
<stop offset="1" stop-color="#E8F5F9"/>
</linearGradient>
<linearGradient id="paint7_linear_94_198" x1="74" y1="127.576" x2="74" y2="-293.424" gradientUnits="userSpaceOnUse">
<stop stop-color="#E8F5F9"/>
<stop offset="0.505208" stop-color="white"/>
<stop offset="1" stop-color="#E8F5F9"/>
</linearGradient>
<linearGradient id="paint8_linear_94_198" x1="74" y1="127.576" x2="74" y2="-293.424" gradientUnits="userSpaceOnUse">
<stop stop-color="#E8F5F9"/>
<stop offset="0.505208" stop-color="white"/>
<stop offset="1" stop-color="#E8F5F9"/>
</linearGradient>
<linearGradient id="paint9_linear_94_198" x1="74" y1="127.576" x2="74" y2="-293.424" gradientUnits="userSpaceOnUse">
<stop stop-color="#E8F5F9"/>
<stop offset="0.505208" stop-color="white"/>
<stop offset="1" stop-color="#E8F5F9"/>
</linearGradient>
<linearGradient id="paint10_linear_94_198" x1="74" y1="127.576" x2="74" y2="-293.424" gradientUnits="userSpaceOnUse">
<stop stop-color="#E8F5F9"/>
<stop offset="0.505208" stop-color="white"/>
<stop offset="1" stop-color="#E8F5F9"/>
</linearGradient>
<linearGradient id="paint11_linear_94_198" x1="74" y1="127.576" x2="74" y2="-293.424" gradientUnits="userSpaceOnUse">
<stop stop-color="#E8F5F9"/>
<stop offset="0.505208" stop-color="white"/>
<stop offset="1" stop-color="#E8F5F9"/>
</linearGradient>
<linearGradient id="paint12_linear_94_198" x1="74" y1="127.576" x2="74" y2="-293.424" gradientUnits="userSpaceOnUse">
<stop stop-color="#E8F5F9"/>
<stop offset="0.505208" stop-color="white"/>
<stop offset="1" stop-color="#E8F5F9"/>
</linearGradient>
<linearGradient id="paint13_linear_94_198" x1="74" y1="127.576" x2="74" y2="-293.424" gradientUnits="userSpaceOnUse">
<stop stop-color="#E8F5F9"/>
<stop offset="0.505208" stop-color="white"/>
<stop offset="1" stop-color="#E8F5F9"/>
</linearGradient>
<linearGradient id="paint14_linear_94_198" x1="74" y1="127.576" x2="74" y2="-293.424" gradientUnits="userSpaceOnUse">
<stop stop-color="#E8F5F9"/>
<stop offset="0.505208" stop-color="white"/>
<stop offset="1" stop-color="#E8F5F9"/>
</linearGradient>
<linearGradient id="paint15_linear_94_198" x1="74" y1="127.576" x2="74" y2="-293.424" gradientUnits="userSpaceOnUse">
<stop stop-color="#E8F5F9"/>
<stop offset="0.505208" stop-color="white"/>
<stop offset="1" stop-color="#E8F5F9"/>
</linearGradient>
<linearGradient id="paint16_linear_94_198" x1="74" y1="127.576" x2="74" y2="-293.424" gradientUnits="userSpaceOnUse">
<stop stop-color="#E8F5F9"/>
<stop offset="0.505208" stop-color="white"/>
<stop offset="1" stop-color="#E8F5F9"/>
</linearGradient>
<linearGradient id="paint17_linear_94_198" x1="74" y1="127.576" x2="74" y2="-293.424" gradientUnits="userSpaceOnUse">
<stop stop-color="#E8F5F9"/>
<stop offset="0.505208" stop-color="white"/>
<stop offset="1" stop-color="#E8F5F9"/>
</linearGradient>
<linearGradient id="paint18_linear_94_198" x1="74" y1="127.576" x2="74" y2="-293.424" gradientUnits="userSpaceOnUse">
<stop stop-color="#E8F5F9"/>
<stop offset="0.505208" stop-color="white"/>
<stop offset="1" stop-color="#E8F5F9"/>
</linearGradient>
<linearGradient id="paint19_linear_94_198" x1="74" y1="127.576" x2="74" y2="-293.424" gradientUnits="userSpaceOnUse">
<stop stop-color="#E8F5F9"/>
<stop offset="0.505208" stop-color="white"/>
<stop offset="1" stop-color="#E8F5F9"/>
</linearGradient>
<linearGradient id="paint20_linear_94_198" x1="74" y1="127.576" x2="74" y2="-293.424" gradientUnits="userSpaceOnUse">
<stop stop-color="#E8F5F9"/>
<stop offset="0.505208" stop-color="white"/>
<stop offset="1" stop-color="#E8F5F9"/>
</linearGradient>
<linearGradient id="paint21_linear_94_198" x1="74" y1="127.576" x2="74" y2="-293.424" gradientUnits="userSpaceOnUse">
<stop stop-color="#E8F5F9"/>
<stop offset="0.505208" stop-color="white"/>
<stop offset="1" stop-color="#E8F5F9"/>
</linearGradient>
<linearGradient id="paint22_linear_94_198" x1="74" y1="127.576" x2="74" y2="-293.424" gradientUnits="userSpaceOnUse">
<stop stop-color="#E8F5F9"/>
<stop offset="0.505208" stop-color="white"/>
<stop offset="1" stop-color="#E8F5F9"/>
</linearGradient>
<linearGradient id="paint23_linear_94_198" x1="74" y1="127.576" x2="74" y2="-293.424" gradientUnits="userSpaceOnUse">
<stop stop-color="#E8F5F9"/>
<stop offset="0.505208" stop-color="white"/>
<stop offset="1" stop-color="#E8F5F9"/>
</linearGradient>
<linearGradient id="paint24_linear_94_198" x1="74" y1="127.576" x2="74" y2="-293.424" gradientUnits="userSpaceOnUse">
<stop stop-color="#E8F5F9"/>
<stop offset="0.505208" stop-color="white"/>
<stop offset="1" stop-color="#E8F5F9"/>
</linearGradient>
<linearGradient id="paint25_linear_94_198" x1="74" y1="127.576" x2="74" y2="-293.424" gradientUnits="userSpaceOnUse">
<stop stop-color="#E8F5F9"/>
<stop offset="0.505208" stop-color="white"/>
<stop offset="1" stop-color="#E8F5F9"/>
</linearGradient>
<linearGradient id="paint26_linear_94_198" x1="74" y1="127.576" x2="74" y2="-293.424" gradientUnits="userSpaceOnUse">
<stop stop-color="#E8F5F9"/>
<stop offset="0.505208" stop-color="white"/>
<stop offset="1" stop-color="#E8F5F9"/>
</linearGradient>
<linearGradient id="paint27_linear_94_198" x1="74" y1="127.576" x2="74" y2="-293.424" gradientUnits="userSpaceOnUse">
<stop stop-color="#E8F5F9"/>
<stop offset="0.505208" stop-color="white"/>
<stop offset="1" stop-color="#E8F5F9"/>
</linearGradient>
<linearGradient id="paint28_linear_94_198" x1="74" y1="127.576" x2="74" y2="-293.424" gradientUnits="userSpaceOnUse">
<stop stop-color="#E8F5F9"/>
<stop offset="0.505208" stop-color="white"/>
<stop offset="1" stop-color="#E8F5F9"/>
</linearGradient>
<linearGradient id="paint29_linear_94_198" x1="74" y1="127.576" x2="74" y2="-293.424" gradientUnits="userSpaceOnUse">
<stop stop-color="#E8F5F9"/>
<stop offset="0.505208" stop-color="white"/>
<stop offset="1" stop-color="#E8F5F9"/>
</linearGradient>
<linearGradient id="paint30_linear_94_198" x1="74" y1="127.576" x2="74" y2="-293.424" gradientUnits="userSpaceOnUse">
<stop stop-color="#E8F5F9"/>
<stop offset="0.505208" stop-color="white"/>
<stop offset="1" stop-color="#E8F5F9"/>
</linearGradient>
<linearGradient id="paint31_linear_94_198" x1="74" y1="127.576" x2="74" y2="-293.424" gradientUnits="userSpaceOnUse">
<stop stop-color="#E8F5F9"/>
<stop offset="0.505208" stop-color="white"/>
<stop offset="1" stop-color="#E8F5F9"/>
</linearGradient>
<linearGradient id="paint32_linear_94_198" x1="74" y1="127.576" x2="74" y2="-293.424" gradientUnits="userSpaceOnUse">
<stop stop-color="#E8F5F9"/>
<stop offset="0.505208" stop-color="white"/>
<stop offset="1" stop-color="#E8F5F9"/>
</linearGradient>
<linearGradient id="paint33_linear_94_198" x1="74" y1="127.576" x2="74" y2="-293.424" gradientUnits="userSpaceOnUse">
<stop stop-color="#E8F5F9"/>
<stop offset="0.505208" stop-color="white"/>
<stop offset="1" stop-color="#E8F5F9"/>
</linearGradient>
<linearGradient id="paint34_linear_94_198" x1="74" y1="127.576" x2="74" y2="-293.424" gradientUnits="userSpaceOnUse">
<stop stop-color="#E8F5F9"/>
<stop offset="0.505208" stop-color="white"/>
<stop offset="1" stop-color="#E8F5F9"/>
</linearGradient>
<linearGradient id="paint35_linear_94_198" x1="74" y1="127.576" x2="74" y2="-293.424" gradientUnits="userSpaceOnUse">
<stop stop-color="#E8F5F9"/>
<stop offset="0.505208" stop-color="white"/>
<stop offset="1" stop-color="#E8F5F9"/>
</linearGradient>
<linearGradient id="paint36_linear_94_198" x1="74" y1="127.576" x2="74" y2="-293.424" gradientUnits="userSpaceOnUse">
<stop stop-color="#E8F5F9"/>
<stop offset="0.505208" stop-color="white"/>
<stop offset="1" stop-color="#E8F5F9"/>
</linearGradient>
<linearGradient id="paint37_linear_94_198" x1="74" y1="127.576" x2="74" y2="-293.424" gradientUnits="userSpaceOnUse">
<stop stop-color="#E8F5F9"/>
<stop offset="0.505208" stop-color="white"/>
<stop offset="1" stop-color="#E8F5F9"/>
</linearGradient>
<linearGradient id="paint38_linear_94_198" x1="74" y1="127.576" x2="74" y2="-293.424" gradientUnits="userSpaceOnUse">
<stop stop-color="#E8F5F9"/>
<stop offset="0.505208" stop-color="white"/>
<stop offset="1" stop-color="#E8F5F9"/>
</linearGradient>
<linearGradient id="paint39_linear_94_198" x1="74" y1="127.576" x2="74" y2="-293.424" gradientUnits="userSpaceOnUse">
<stop stop-color="#E8F5F9"/>
<stop offset="0.505208" stop-color="white"/>
<stop offset="1" stop-color="#E8F5F9"/>
</linearGradient>
<linearGradient id="paint40_linear_94_198" x1="74" y1="127.576" x2="74" y2="-293.424" gradientUnits="userSpaceOnUse">
<stop stop-color="#E8F5F9"/>
<stop offset="0.505208" stop-color="white"/>
<stop offset="1" stop-color="#E8F5F9"/>
</linearGradient>
<linearGradient id="paint41_linear_94_198" x1="74" y1="127.576" x2="74" y2="-293.424" gradientUnits="userSpaceOnUse">
<stop stop-color="#E8F5F9"/>
<stop offset="0.505208" stop-color="white"/>
<stop offset="1" stop-color="#E8F5F9"/>
</linearGradient>
<linearGradient id="paint42_linear_94_198" x1="74" y1="127.576" x2="74" y2="-293.424" gradientUnits="userSpaceOnUse">
<stop stop-color="#E8F5F9"/>
<stop offset="0.505208" stop-color="white"/>
<stop offset="1" stop-color="#E8F5F9"/>
</linearGradient>
<linearGradient id="paint43_linear_94_198" x1="74" y1="127.576" x2="74" y2="-293.424" gradientUnits="userSpaceOnUse">
<stop stop-color="#E8F5F9"/>
<stop offset="0.505208" stop-color="white"/>
<stop offset="1" stop-color="#E8F5F9"/>
</linearGradient>
<linearGradient id="paint44_linear_94_198" x1="74" y1="127.576" x2="74" y2="-293.424" gradientUnits="userSpaceOnUse">
<stop stop-color="#E8F5F9"/>
<stop offset="0.505208" stop-color="white"/>
<stop offset="1" stop-color="#E8F5F9"/>
</linearGradient>
<linearGradient id="paint45_linear_94_198" x1="74" y1="127.576" x2="74" y2="-293.424" gradientUnits="userSpaceOnUse">
<stop stop-color="#E8F5F9"/>
<stop offset="0.505208" stop-color="white"/>
<stop offset="1" stop-color="#E8F5F9"/>
</linearGradient>
<linearGradient id="paint46_linear_94_198" x1="74" y1="127.576" x2="74" y2="-293.424" gradientUnits="userSpaceOnUse">
<stop stop-color="#E8F5F9"/>
<stop offset="0.505208" stop-color="white"/>
<stop offset="1" stop-color="#E8F5F9"/>
</linearGradient>
<linearGradient id="paint47_linear_94_198" x1="74" y1="127.576" x2="74" y2="-293.424" gradientUnits="userSpaceOnUse">
<stop stop-color="#E8F5F9"/>
<stop offset="0.505208" stop-color="white"/>
<stop offset="1" stop-color="#E8F5F9"/>
</linearGradient>
<linearGradient id="paint48_linear_94_198" x1="74" y1="127.576" x2="74" y2="-293.424" gradientUnits="userSpaceOnUse">
<stop stop-color="#E8F5F9"/>
<stop offset="0.505208" stop-color="white"/>
<stop offset="1" stop-color="#E8F5F9"/>
</linearGradient>
<linearGradient id="paint49_linear_94_198" x1="74" y1="127.576" x2="74" y2="-293.424" gradientUnits="userSpaceOnUse">
<stop stop-color="#E8F5F9"/>
<stop offset="0.505208" stop-color="white"/>
<stop offset="1" stop-color="#E8F5F9"/>
</linearGradient>
<linearGradient id="paint50_linear_94_198" x1="74" y1="127.576" x2="74" y2="-293.424" gradientUnits="userSpaceOnUse">
<stop stop-color="#E8F5F9"/>
<stop offset="0.505208" stop-color="white"/>
<stop offset="1" stop-color="#E8F5F9"/>
</linearGradient>
<linearGradient id="paint51_linear_94_198" x1="74" y1="127.576" x2="74" y2="-293.424" gradientUnits="userSpaceOnUse">
<stop stop-color="#E8F5F9"/>
<stop offset="0.505208" stop-color="white"/>
<stop offset="1" stop-color="#E8F5F9"/>
</linearGradient>
<linearGradient id="paint52_linear_94_198" x1="74" y1="127.576" x2="74" y2="-293.424" gradientUnits="userSpaceOnUse">
<stop stop-color="#E8F5F9"/>
<stop offset="0.505208" stop-color="white"/>
<stop offset="1" stop-color="#E8F5F9"/>
</linearGradient>
<linearGradient id="paint53_linear_94_198" x1="74" y1="127.576" x2="74" y2="-293.424" gradientUnits="userSpaceOnUse">
<stop stop-color="#E8F5F9"/>
<stop offset="0.505208" stop-color="white"/>
<stop offset="1" stop-color="#E8F5F9"/>
</linearGradient>
<linearGradient id="paint54_linear_94_198" x1="74" y1="127.576" x2="74" y2="-293.424" gradientUnits="userSpaceOnUse">
<stop stop-color="#E8F5F9"/>
<stop offset="0.505208" stop-color="white"/>
<stop offset="1" stop-color="#E8F5F9"/>
</linearGradient>
<linearGradient id="paint55_linear_94_198" x1="74" y1="127.576" x2="74" y2="-293.424" gradientUnits="userSpaceOnUse">
<stop stop-color="#E8F5F9"/>
<stop offset="0.505208" stop-color="white"/>
<stop offset="1" stop-color="#E8F5F9"/>
</linearGradient>
<linearGradient id="paint56_linear_94_198" x1="74" y1="127.576" x2="74" y2="-293.424" gradientUnits="userSpaceOnUse">
<stop stop-color="#E8F5F9"/>
<stop offset="0.505208" stop-color="white"/>
<stop offset="1" stop-color="#E8F5F9"/>
</linearGradient>
<linearGradient id="paint57_linear_94_198" x1="74" y1="127.576" x2="74" y2="-293.424" gradientUnits="userSpaceOnUse">
<stop stop-color="#E8F5F9"/>
<stop offset="0.505208" stop-color="white"/>
<stop offset="1" stop-color="#E8F5F9"/>
</linearGradient>
<linearGradient id="paint58_linear_94_198" x1="74" y1="127.576" x2="74" y2="-293.424" gradientUnits="userSpaceOnUse">
<stop stop-color="#E8F5F9"/>
<stop offset="0.505208" stop-color="white"/>
<stop offset="1" stop-color="#E8F5F9"/>
</linearGradient>
<linearGradient id="paint59_linear_94_198" x1="74" y1="127.576" x2="74" y2="-293.424" gradientUnits="userSpaceOnUse">
<stop stop-color="#E8F5F9"/>
<stop offset="0.505208" stop-color="white"/>
<stop offset="1" stop-color="#E8F5F9"/>
</linearGradient>
<linearGradient id="paint60_linear_94_198" x1="74" y1="127.576" x2="74" y2="-293.424" gradientUnits="userSpaceOnUse">
<stop stop-color="#E8F5F9"/>
<stop offset="0.505208" stop-color="white"/>
<stop offset="1" stop-color="#E8F5F9"/>
</linearGradient>
<linearGradient id="paint61_linear_94_198" x1="74" y1="127.576" x2="74" y2="-293.424" gradientUnits="userSpaceOnUse">
<stop stop-color="#E8F5F9"/>
<stop offset="0.505208" stop-color="white"/>
<stop offset="1" stop-color="#E8F5F9"/>
</linearGradient>
<linearGradient id="paint62_linear_94_198" x1="74" y1="127.576" x2="74" y2="-293.424" gradientUnits="userSpaceOnUse">
<stop stop-color="#E8F5F9"/>
<stop offset="0.505208" stop-color="white"/>
<stop offset="1" stop-color="#E8F5F9"/>
</linearGradient>
<linearGradient id="paint63_linear_94_198" x1="74" y1="127.576" x2="74" y2="-293.424" gradientUnits="userSpaceOnUse">
<stop stop-color="#E8F5F9"/>
<stop offset="0.505208" stop-color="white"/>
<stop offset="1" stop-color="#E8F5F9"/>
</linearGradient>
</defs>
</svg>
