<svg width="34" height="34" viewBox="0 0 34 34" fill="none" xmlns="http://www.w3.org/2000/svg">
<path d="M29.1833 22.1L22.525 19.2667C24.3667 17.7083 25.5 15.3 25.5 12.75V8.5C25.5 3.825 21.675 0 17 0C12.325 0 8.5 3.825 8.5 8.5V12.75C8.5 15.3 9.63333 17.7083 11.6167 19.2667L4.95833 22.1C1.84167 23.2333 0 26.2083 0 29.325V34H1.41667V29.325C1.41667 26.6333 2.975 24.3667 5.38333 23.375L10.0583 21.3917L17 32.5833L23.9417 21.3917H24.0833V26.9167C22.525 27.2 21.25 28.6167 21.25 30.3167C21.25 32.3 22.8083 33.8583 24.7917 33.8583C26.775 33.8583 28.3333 32.3 28.3333 30.3167C28.3333 28.6167 27.0583 27.2 25.5 26.9167V21.9583L28.6167 23.2333C31.025 24.225 32.5833 26.6333 32.5833 29.1833V34H34V29.325C34 26.2083 32.1583 23.2333 29.1833 22.1ZM26.9167 30.4583C26.9167 31.5917 25.925 32.5833 24.7917 32.5833C23.6583 32.5833 22.6667 31.5917 22.6667 30.4583C22.6667 29.325 23.5167 28.475 24.5083 28.3333H25.075C26.0667 28.475 26.9167 29.325 26.9167 30.4583ZM24.0833 8.075C22.6667 7.65 21.3917 6.94167 20.2583 5.95C20.9667 5.24167 21.5333 4.39167 21.9583 3.54167C23.2333 4.675 23.9417 6.23333 24.0833 8.075ZM17 1.41667C18.4167 1.41667 19.6917 1.84167 20.825 2.55C18.7 6.51667 14.5917 9.35 9.91667 9.775V8.5C9.91667 4.53333 13.0333 1.41667 17 1.41667ZM9.91667 12.75V11.1917C13.6 10.9083 16.8583 9.35 19.2667 6.94167C20.6833 8.21667 22.2417 9.06667 24.0833 9.63333V12.75C24.0833 16.7167 20.825 19.8333 17 19.8333C13.0333 19.8333 9.91667 16.7167 9.91667 12.75ZM17 29.8917L11.3333 20.825L12.8917 20.1167C14.1667 20.825 15.5833 21.25 17 21.25C18.4167 21.25 19.8333 20.825 21.1083 20.2583L22.6667 20.9667L17 29.8917Z" fill="#6F283B"/>
</svg>
