<svg width="20" height="24" viewBox="0 0 20 24" fill="none" xmlns="http://www.w3.org/2000/svg">
<path d="M15.9998 6C15.9998 9.31371 13.3135 12 9.99976 12C6.68605 12 3.99976 9.31371 3.99976 6C3.99976 2.68629 6.68605 0 9.99976 0C13.3135 0 15.9998 2.68629 15.9998 6Z" fill="#6F283B"/>
<path d="M17.0708 14.929C16.2018 14.06 15.1898 13.368 14.0908 12.875C12.8928 13.59 11.4938 14 9.99976 14C8.50576 14 7.10676 13.59 5.90876 12.875C4.80976 13.368 3.79776 14.06 2.92876 14.929C1.05376 16.804 -0.000244141 19.348 -0.000244141 22V23C-0.000244141 23.552 0.447756 24 0.999756 24H18.9998C19.5518 24 19.9998 23.552 19.9998 23V22C19.9998 19.348 18.9458 16.804 17.0708 14.929Z" fill="#6F283B"/>
</svg>
