<svg width="57" height="52" viewBox="0 0 57 52" fill="none" xmlns="http://www.w3.org/2000/svg">
<mask id="path-1-inside-1_94_189" fill="white">
<path d="M56.8177 25.8919C56.7059 25.0491 56.2214 24.3378 55.5199 23.8807C55.0551 23.5774 54.4786 23.5752 53.9919 23.787C53.9853 21.9675 53.9919 20.1481 53.9459 18.3308C53.8998 16.2906 54.0094 14.2526 54.084 12.2168C54.1103 11.5457 53.6872 10.9659 53.1194 10.6805C53.069 9.91349 53.0164 9.14645 52.9506 8.38165C52.9089 7.92455 52.8717 7.46745 52.8081 7.01481C52.7949 6.92562 52.784 6.83643 52.7708 6.74724C52.7379 6.51088 52.6327 6.10284 52.5012 5.92223C52.3105 5.66804 52.1482 5.38486 51.8523 5.23992C51.6353 5.13512 51.427 5.03256 51.1902 4.99911C50.9601 4.96343 50.7233 4.96343 50.4909 4.93668C50.4405 4.18525 50.401 3.43382 50.3682 2.68239C50.4515 2.48841 50.4975 2.27881 50.4975 2.06029C50.4975 1.17954 49.7763 0.459329 48.9191 0.45041C47.1544 0.437032 45.3896 0.463789 43.6249 0.387977C42.0377 0.321085 40.4528 0.227435 38.859 0.193989C35.5115 0.131556 32.1574 0.156083 28.8055 0.131555C25.5172 0.109258 22.2333 0.0423655 18.9384 0.0334465C17.3315 0.0312167 15.7246 0 14.1199 0C12.5722 0 11.0223 0.0289866 9.47677 0.138245C7.77123 0.260881 6.04377 0.657777 4.47414 1.35346C2.94178 2.02685 1.56507 3.36916 1.08936 5.02364C0.960018 5.47628 0.894252 5.93784 0.835063 6.40831C0.784642 6.7896 0.740797 7.17981 0.784641 7.56333C0.839447 8.04272 0.916175 8.50651 1.04113 8.96584C0.52596 9.23118 0.164244 9.76632 0.157668 10.384C0.135746 12.1633 0.144515 13.9404 0.111632 15.7153C0.083133 17.3297 0.0458652 18.9418 0.0283275 20.5516C-0.000171285 23.8115 -0.017709 27.067 0.0283275 30.3291C0.0612107 32.5946 0.111631 34.86 0.1204 37.1254C0.133554 39.3998 0.162053 41.6763 0.111632 43.9552C0.105055 44.2383 0.203704 44.4925 0.339622 44.7244C0.670646 45.594 1.01702 46.4681 1.46642 47.2797C1.65057 47.6097 1.88294 47.9152 2.10655 48.2207C2.31481 48.4994 2.52745 48.7759 2.7401 49.0501C3.06455 49.4693 3.55122 49.7993 3.98528 50.0825C4.95423 50.7269 6.08323 51.1372 7.22098 51.3401C8.20748 51.514 9.20275 51.6835 10.2024 51.7459C12.0176 51.8552 13.8415 51.8685 15.6632 51.902C17.3951 51.931 19.1269 51.9644 20.8544 51.9622C22.6191 51.9622 24.3794 51.9421 26.142 51.9533C27.9111 51.9711 29.6758 52.0246 31.445 51.9867C33.2689 51.9533 35.0884 51.8775 36.9101 51.8507C38.6617 51.8217 40.4243 51.8306 42.1759 51.8306C43.8485 51.8306 45.5234 51.8306 47.1916 51.8083C47.9743 51.7994 48.7569 51.8083 49.5439 51.8173C50.3682 51.8262 51.1924 51.8351 52.0211 51.8217C52.5845 51.815 53.0755 51.5296 53.4088 51.1104C53.8319 50.8027 54.1322 50.3278 54.1212 49.7726C54.084 47.855 54.1037 45.9374 54.084 44.0176C54.0555 41.8146 54.0883 39.616 54.1256 37.4153C54.6452 37.335 55.1099 37.1812 55.5418 36.8132C56.5042 35.9927 56.7322 34.5857 56.833 33.3839C56.8966 32.6391 56.8966 31.8899 56.9251 31.1407C56.9711 29.9969 57.0259 28.8419 56.9865 27.6936C56.9645 27.0915 56.8966 26.4895 56.8177 25.8919ZM10.3098 10.0227C10.3164 9.85997 10.3252 9.69497 10.2901 9.52774C10.2813 9.48538 10.2747 9.44078 10.266 9.39842C10.2221 8.71611 10.244 8.02935 10.2506 7.34258C13.4578 7.43623 16.6672 7.43846 19.8788 7.45407C21.5318 7.46299 23.1847 7.50535 24.8376 7.54772C26.37 7.59008 27.898 7.7038 29.4303 7.75509C31.0241 7.81083 32.6222 7.83536 34.2225 7.8688C35.8206 7.90225 37.4231 7.9357 39.0213 7.94907C40.6479 7.96245 42.2767 7.97806 43.9011 7.98252C45.3326 7.98698 46.7663 8.04941 48.1979 8.05833C48.7284 8.06056 49.2567 8.08063 49.7828 8.12077C49.8705 8.90787 49.9275 9.6972 49.9516 10.491C49.0989 10.5088 48.2439 10.4999 47.3955 10.491C45.8018 10.4687 44.2058 10.4196 42.6121 10.4107C39.4115 10.3929 36.2174 10.2836 33.0168 10.2591C29.6123 10.2346 26.2099 10.2636 22.8054 10.1409C20.6154 10.0651 18.421 10.0696 16.2332 10.074C15.0625 10.074 13.8941 10.0785 12.7278 10.0651C11.9211 10.054 11.1144 10.0428 10.3098 10.0227ZM53.5293 33.9681C53.5315 33.9659 53.5359 33.9614 53.5403 33.9569C53.5381 33.9614 53.5337 33.9659 53.5293 33.9681ZM53.104 26.9466C53.218 26.9555 53.3298 26.9488 53.4373 26.931C53.503 27.9098 53.4921 28.8909 53.4745 29.8743C53.4658 30.4964 53.4548 31.1185 53.4416 31.745C53.4351 32.3537 53.4438 32.9625 53.389 33.5667C53.3627 33.7072 53.332 33.8454 53.2948 33.9837C52.6875 34.0149 52.0737 33.9948 51.4687 33.9792C50.7321 33.9614 49.9955 33.9547 49.2589 33.9547C47.6257 33.9547 45.9859 33.9592 44.3659 33.7719C43.8726 33.6827 43.3947 33.5556 42.9256 33.3794C42.4543 33.152 42.0224 32.8889 41.6037 32.5812C41.4458 32.4407 41.2946 32.2958 41.1499 32.1419C41.0622 32.0037 40.9855 31.8632 40.9109 31.7183C40.8342 31.5087 40.7641 31.2968 40.7071 31.0761C40.672 30.5789 40.6873 30.0928 40.74 29.5978C40.8276 29.0671 40.9351 28.5409 41.1148 28.0325C41.174 27.9143 41.2376 27.8028 41.3055 27.6936C41.3888 27.6088 41.4721 27.5263 41.5598 27.4505C41.7264 27.3457 41.8974 27.2498 42.075 27.1606C42.5069 27.0023 42.9453 26.8819 43.4013 26.7994C44.1138 26.7258 44.824 26.7102 45.5409 26.6924C46.306 26.6701 47.0733 26.6411 47.8383 26.6411C49.5965 26.6322 51.3568 26.8106 53.104 26.9466ZM4.15408 6.60007C4.2045 6.32358 4.26588 6.05378 4.35357 5.78844C4.41495 5.66358 4.48291 5.5454 4.55525 5.42945C4.74597 5.21094 4.94985 5.0058 5.16688 4.81404C5.44529 4.62005 5.73466 4.45951 6.04157 4.31012C7.08288 3.90653 8.17679 3.65457 9.2729 3.48511C10.7702 3.32233 12.2609 3.24875 13.7647 3.2376C15.3541 3.22868 16.9457 3.21308 18.535 3.20862C20.0169 3.20862 21.4989 3.21754 22.9852 3.22645C24.7631 3.23537 26.5454 3.24652 28.3254 3.23537C31.6642 3.21531 35.0029 3.20639 38.3417 3.27328C39.9398 3.30673 41.5335 3.34017 43.1338 3.4472C44.4514 3.54085 45.7711 3.57207 47.0908 3.60774C47.1215 4.00241 47.1478 4.39931 47.1916 4.7962C47.0448 4.7962 46.8979 4.79174 46.751 4.79397C43.6293 4.81404 40.5076 4.86086 37.3837 4.81404C35.7307 4.79397 34.0778 4.7583 32.4293 4.70478C30.8684 4.65796 29.3119 4.64458 27.7533 4.58215C26.1595 4.51748 24.568 4.45059 22.9742 4.43052C21.3805 4.406 19.7846 4.40822 18.1908 4.38816C15.2182 4.34133 12.2455 4.23207 9.27728 4.10498C9.25755 4.10498 9.23782 4.10275 9.21809 4.10275C8.45082 4.10275 7.8348 4.76276 7.73177 5.50972C7.26921 5.81074 6.94038 6.3102 6.94257 6.89886C6.94696 7.87995 6.9645 8.86773 7.08726 9.84437C7.02149 9.83099 6.95134 9.83322 6.88119 9.8243C6.3726 9.74403 5.86839 9.65707 5.37952 9.49206C5.22168 9.40956 5.07261 9.31814 4.92354 9.21558C4.84462 9.14422 4.77228 9.07064 4.70213 8.99037C4.58375 8.79638 4.4851 8.59793 4.39303 8.3928C4.28342 8.09847 4.19792 7.80414 4.13435 7.49643C4.11462 7.19542 4.12558 6.90109 4.15408 6.60007ZM47.0448 48.2296C45.3414 48.272 43.6359 48.2675 41.9325 48.3054C38.2891 48.3768 34.6478 48.5038 30.9999 48.5306C29.3097 48.5395 27.6152 48.5774 25.925 48.5641C24.1273 48.5551 22.3319 48.5306 20.5387 48.5261C18.8441 48.5217 17.1495 48.544 15.4549 48.5507C13.631 48.5551 11.7961 48.5641 9.98098 48.3812C9.8363 48.3656 9.69161 48.3522 9.54692 48.3366C8.55824 48.1939 7.56297 48.0155 6.62909 47.6632C6.25641 47.4759 5.89689 47.2686 5.5549 47.03C5.31814 46.8182 5.10988 46.5885 4.91039 46.3432C4.73501 46.1069 4.56402 45.8638 4.40399 45.6119C4.2308 45.3309 4.09489 45.021 3.96335 44.7155C3.81209 44.3364 3.6674 43.9529 3.52491 43.5672C3.43941 43.3375 3.33419 43.1346 3.20046 42.954C3.17854 40.0821 3.17854 37.2124 3.14127 34.3449C3.11716 32.7529 3.08647 31.1564 3.06674 29.5643C3.04262 27.9299 3.06235 26.291 3.05797 24.6566C3.05797 22.3176 3.05358 19.9786 3.11277 17.6374C3.15662 15.8179 3.21142 14.0006 3.25965 12.1811C3.36488 12.248 3.46791 12.3216 3.57314 12.3818C4.44783 12.8724 5.42556 12.995 6.3989 13.1154C7.21441 13.218 8.0343 13.2626 8.85857 13.2938C10.494 13.354 12.1359 13.3317 13.7757 13.3317C15.5032 13.3317 17.2263 13.3116 18.9537 13.3027C20.6527 13.2893 22.3429 13.3696 24.0397 13.4254C25.675 13.4766 27.3126 13.4766 28.9524 13.4766C30.6514 13.4722 32.3525 13.4588 34.0515 13.4633C35.7176 13.4677 37.3815 13.5681 39.0432 13.6706C42.1649 13.8579 45.2998 13.8691 48.4259 13.907C49.1646 13.9159 49.9144 13.907 50.6619 13.8758C50.6159 17.0576 50.6575 20.2417 50.6707 23.4236C49.6469 23.3745 48.6232 23.3009 47.5972 23.2898C46.8102 23.2809 46.0232 23.2563 45.2406 23.243C45.1616 23.2407 45.0849 23.2407 45.006 23.2407C44.1335 23.2407 43.272 23.3255 42.406 23.4414C41.4656 23.573 40.5076 23.9632 39.7008 24.4671C39.098 24.8439 38.6727 25.3478 38.2474 25.912C37.98 26.2665 37.8221 26.7682 37.673 27.174C37.5108 27.611 37.4231 28.0793 37.3354 28.5386C37.1096 29.7159 37.0022 30.9089 37.2434 32.0951C37.3026 32.3916 37.4187 32.6793 37.5262 32.9625C37.7936 33.6693 38.1553 34.2535 38.6552 34.8176C39.0498 35.2658 39.5803 35.6136 40.0626 35.957C40.3739 36.1778 40.7158 36.3584 41.0622 36.5211C41.5533 36.7464 42.0619 36.9827 42.5902 37.1143C43.5263 37.3506 44.504 37.4287 45.4664 37.4822C46.5449 37.5424 47.6301 37.5335 48.7174 37.5245C49.1756 37.5201 49.6382 37.5156 50.0985 37.5156C50.2914 37.5156 50.4822 37.5178 50.6751 37.5201C50.651 41.0698 50.7628 44.6174 50.7913 48.1649C49.5439 48.1783 48.2943 48.2006 47.0448 48.2296ZM46.3257 30.1574C46.3257 31.1185 45.5387 31.9212 44.5917 31.9212C43.6468 31.9212 42.8576 31.1207 42.8576 30.1574C42.8576 29.1964 43.6446 28.3937 44.5917 28.3937C45.5365 28.3937 46.3257 29.1964 46.3257 30.1574Z"/>
</mask>
<path d="M56.8177 25.8919C56.7059 25.0491 56.2214 24.3378 55.5199 23.8807C55.0551 23.5774 54.4786 23.5752 53.9919 23.787C53.9853 21.9675 53.9919 20.1481 53.9459 18.3308C53.8998 16.2906 54.0094 14.2526 54.084 12.2168C54.1103 11.5457 53.6872 10.9659 53.1194 10.6805C53.069 9.91349 53.0164 9.14645 52.9506 8.38165C52.9089 7.92455 52.8717 7.46745 52.8081 7.01481C52.7949 6.92562 52.784 6.83643 52.7708 6.74724C52.7379 6.51088 52.6327 6.10284 52.5012 5.92223C52.3105 5.66804 52.1482 5.38486 51.8523 5.23992C51.6353 5.13512 51.427 5.03256 51.1902 4.99911C50.9601 4.96343 50.7233 4.96343 50.4909 4.93668C50.4405 4.18525 50.401 3.43382 50.3682 2.68239C50.4515 2.48841 50.4975 2.27881 50.4975 2.06029C50.4975 1.17954 49.7763 0.459329 48.9191 0.45041C47.1544 0.437032 45.3896 0.463789 43.6249 0.387977C42.0377 0.321085 40.4528 0.227435 38.859 0.193989C35.5115 0.131556 32.1574 0.156083 28.8055 0.131555C25.5172 0.109258 22.2333 0.0423655 18.9384 0.0334465C17.3315 0.0312167 15.7246 0 14.1199 0C12.5722 0 11.0223 0.0289866 9.47677 0.138245C7.77123 0.260881 6.04377 0.657777 4.47414 1.35346C2.94178 2.02685 1.56507 3.36916 1.08936 5.02364C0.960018 5.47628 0.894252 5.93784 0.835063 6.40831C0.784642 6.7896 0.740797 7.17981 0.784641 7.56333C0.839447 8.04272 0.916175 8.50651 1.04113 8.96584C0.52596 9.23118 0.164244 9.76632 0.157668 10.384C0.135746 12.1633 0.144515 13.9404 0.111632 15.7153C0.083133 17.3297 0.0458652 18.9418 0.0283275 20.5516C-0.000171285 23.8115 -0.017709 27.067 0.0283275 30.3291C0.0612107 32.5946 0.111631 34.86 0.1204 37.1254C0.133554 39.3998 0.162053 41.6763 0.111632 43.9552C0.105055 44.2383 0.203704 44.4925 0.339622 44.7244C0.670646 45.594 1.01702 46.4681 1.46642 47.2797C1.65057 47.6097 1.88294 47.9152 2.10655 48.2207C2.31481 48.4994 2.52745 48.7759 2.7401 49.0501C3.06455 49.4693 3.55122 49.7993 3.98528 50.0825C4.95423 50.7269 6.08323 51.1372 7.22098 51.3401C8.20748 51.514 9.20275 51.6835 10.2024 51.7459C12.0176 51.8552 13.8415 51.8685 15.6632 51.902C17.3951 51.931 19.1269 51.9644 20.8544 51.9622C22.6191 51.9622 24.3794 51.9421 26.142 51.9533C27.9111 51.9711 29.6758 52.0246 31.445 51.9867C33.2689 51.9533 35.0884 51.8775 36.9101 51.8507C38.6617 51.8217 40.4243 51.8306 42.1759 51.8306C43.8485 51.8306 45.5234 51.8306 47.1916 51.8083C47.9743 51.7994 48.7569 51.8083 49.5439 51.8173C50.3682 51.8262 51.1924 51.8351 52.0211 51.8217C52.5845 51.815 53.0755 51.5296 53.4088 51.1104C53.8319 50.8027 54.1322 50.3278 54.1212 49.7726C54.084 47.855 54.1037 45.9374 54.084 44.0176C54.0555 41.8146 54.0883 39.616 54.1256 37.4153C54.6452 37.335 55.1099 37.1812 55.5418 36.8132C56.5042 35.9927 56.7322 34.5857 56.833 33.3839C56.8966 32.6391 56.8966 31.8899 56.9251 31.1407C56.9711 29.9969 57.0259 28.8419 56.9865 27.6936C56.9645 27.0915 56.8966 26.4895 56.8177 25.8919ZM10.3098 10.0227C10.3164 9.85997 10.3252 9.69497 10.2901 9.52774C10.2813 9.48538 10.2747 9.44078 10.266 9.39842C10.2221 8.71611 10.244 8.02935 10.2506 7.34258C13.4578 7.43623 16.6672 7.43846 19.8788 7.45407C21.5318 7.46299 23.1847 7.50535 24.8376 7.54772C26.37 7.59008 27.898 7.7038 29.4303 7.75509C31.0241 7.81083 32.6222 7.83536 34.2225 7.8688C35.8206 7.90225 37.4231 7.9357 39.0213 7.94907C40.6479 7.96245 42.2767 7.97806 43.9011 7.98252C45.3326 7.98698 46.7663 8.04941 48.1979 8.05833C48.7284 8.06056 49.2567 8.08063 49.7828 8.12077C49.8705 8.90787 49.9275 9.6972 49.9516 10.491C49.0989 10.5088 48.2439 10.4999 47.3955 10.491C45.8018 10.4687 44.2058 10.4196 42.6121 10.4107C39.4115 10.3929 36.2174 10.2836 33.0168 10.2591C29.6123 10.2346 26.2099 10.2636 22.8054 10.1409C20.6154 10.0651 18.421 10.0696 16.2332 10.074C15.0625 10.074 13.8941 10.0785 12.7278 10.0651C11.9211 10.054 11.1144 10.0428 10.3098 10.0227ZM53.5293 33.9681C53.5315 33.9659 53.5359 33.9614 53.5403 33.9569C53.5381 33.9614 53.5337 33.9659 53.5293 33.9681ZM53.104 26.9466C53.218 26.9555 53.3298 26.9488 53.4373 26.931C53.503 27.9098 53.4921 28.8909 53.4745 29.8743C53.4658 30.4964 53.4548 31.1185 53.4416 31.745C53.4351 32.3537 53.4438 32.9625 53.389 33.5667C53.3627 33.7072 53.332 33.8454 53.2948 33.9837C52.6875 34.0149 52.0737 33.9948 51.4687 33.9792C50.7321 33.9614 49.9955 33.9547 49.2589 33.9547C47.6257 33.9547 45.9859 33.9592 44.3659 33.7719C43.8726 33.6827 43.3947 33.5556 42.9256 33.3794C42.4543 33.152 42.0224 32.8889 41.6037 32.5812C41.4458 32.4407 41.2946 32.2958 41.1499 32.1419C41.0622 32.0037 40.9855 31.8632 40.9109 31.7183C40.8342 31.5087 40.7641 31.2968 40.7071 31.0761C40.672 30.5789 40.6873 30.0928 40.74 29.5978C40.8276 29.0671 40.9351 28.5409 41.1148 28.0325C41.174 27.9143 41.2376 27.8028 41.3055 27.6936C41.3888 27.6088 41.4721 27.5263 41.5598 27.4505C41.7264 27.3457 41.8974 27.2498 42.075 27.1606C42.5069 27.0023 42.9453 26.8819 43.4013 26.7994C44.1138 26.7258 44.824 26.7102 45.5409 26.6924C46.306 26.6701 47.0733 26.6411 47.8383 26.6411C49.5965 26.6322 51.3568 26.8106 53.104 26.9466ZM4.15408 6.60007C4.2045 6.32358 4.26588 6.05378 4.35357 5.78844C4.41495 5.66358 4.48291 5.5454 4.55525 5.42945C4.74597 5.21094 4.94985 5.0058 5.16688 4.81404C5.44529 4.62005 5.73466 4.45951 6.04157 4.31012C7.08288 3.90653 8.17679 3.65457 9.2729 3.48511C10.7702 3.32233 12.2609 3.24875 13.7647 3.2376C15.3541 3.22868 16.9457 3.21308 18.535 3.20862C20.0169 3.20862 21.4989 3.21754 22.9852 3.22645C24.7631 3.23537 26.5454 3.24652 28.3254 3.23537C31.6642 3.21531 35.0029 3.20639 38.3417 3.27328C39.9398 3.30673 41.5335 3.34017 43.1338 3.4472C44.4514 3.54085 45.7711 3.57207 47.0908 3.60774C47.1215 4.00241 47.1478 4.39931 47.1916 4.7962C47.0448 4.7962 46.8979 4.79174 46.751 4.79397C43.6293 4.81404 40.5076 4.86086 37.3837 4.81404C35.7307 4.79397 34.0778 4.7583 32.4293 4.70478C30.8684 4.65796 29.3119 4.64458 27.7533 4.58215C26.1595 4.51748 24.568 4.45059 22.9742 4.43052C21.3805 4.406 19.7846 4.40822 18.1908 4.38816C15.2182 4.34133 12.2455 4.23207 9.27728 4.10498C9.25755 4.10498 9.23782 4.10275 9.21809 4.10275C8.45082 4.10275 7.8348 4.76276 7.73177 5.50972C7.26921 5.81074 6.94038 6.3102 6.94257 6.89886C6.94696 7.87995 6.9645 8.86773 7.08726 9.84437C7.02149 9.83099 6.95134 9.83322 6.88119 9.8243C6.3726 9.74403 5.86839 9.65707 5.37952 9.49206C5.22168 9.40956 5.07261 9.31814 4.92354 9.21558C4.84462 9.14422 4.77228 9.07064 4.70213 8.99037C4.58375 8.79638 4.4851 8.59793 4.39303 8.3928C4.28342 8.09847 4.19792 7.80414 4.13435 7.49643C4.11462 7.19542 4.12558 6.90109 4.15408 6.60007ZM47.0448 48.2296C45.3414 48.272 43.6359 48.2675 41.9325 48.3054C38.2891 48.3768 34.6478 48.5038 30.9999 48.5306C29.3097 48.5395 27.6152 48.5774 25.925 48.5641C24.1273 48.5551 22.3319 48.5306 20.5387 48.5261C18.8441 48.5217 17.1495 48.544 15.4549 48.5507C13.631 48.5551 11.7961 48.5641 9.98098 48.3812C9.8363 48.3656 9.69161 48.3522 9.54692 48.3366C8.55824 48.1939 7.56297 48.0155 6.62909 47.6632C6.25641 47.4759 5.89689 47.2686 5.5549 47.03C5.31814 46.8182 5.10988 46.5885 4.91039 46.3432C4.73501 46.1069 4.56402 45.8638 4.40399 45.6119C4.2308 45.3309 4.09489 45.021 3.96335 44.7155C3.81209 44.3364 3.6674 43.9529 3.52491 43.5672C3.43941 43.3375 3.33419 43.1346 3.20046 42.954C3.17854 40.0821 3.17854 37.2124 3.14127 34.3449C3.11716 32.7529 3.08647 31.1564 3.06674 29.5643C3.04262 27.9299 3.06235 26.291 3.05797 24.6566C3.05797 22.3176 3.05358 19.9786 3.11277 17.6374C3.15662 15.8179 3.21142 14.0006 3.25965 12.1811C3.36488 12.248 3.46791 12.3216 3.57314 12.3818C4.44783 12.8724 5.42556 12.995 6.3989 13.1154C7.21441 13.218 8.0343 13.2626 8.85857 13.2938C10.494 13.354 12.1359 13.3317 13.7757 13.3317C15.5032 13.3317 17.2263 13.3116 18.9537 13.3027C20.6527 13.2893 22.3429 13.3696 24.0397 13.4254C25.675 13.4766 27.3126 13.4766 28.9524 13.4766C30.6514 13.4722 32.3525 13.4588 34.0515 13.4633C35.7176 13.4677 37.3815 13.5681 39.0432 13.6706C42.1649 13.8579 45.2998 13.8691 48.4259 13.907C49.1646 13.9159 49.9144 13.907 50.6619 13.8758C50.6159 17.0576 50.6575 20.2417 50.6707 23.4236C49.6469 23.3745 48.6232 23.3009 47.5972 23.2898C46.8102 23.2809 46.0232 23.2563 45.2406 23.243C45.1616 23.2407 45.0849 23.2407 45.006 23.2407C44.1335 23.2407 43.272 23.3255 42.406 23.4414C41.4656 23.573 40.5076 23.9632 39.7008 24.4671C39.098 24.8439 38.6727 25.3478 38.2474 25.912C37.98 26.2665 37.8221 26.7682 37.673 27.174C37.5108 27.611 37.4231 28.0793 37.3354 28.5386C37.1096 29.7159 37.0022 30.9089 37.2434 32.0951C37.3026 32.3916 37.4187 32.6793 37.5262 32.9625C37.7936 33.6693 38.1553 34.2535 38.6552 34.8176C39.0498 35.2658 39.5803 35.6136 40.0626 35.957C40.3739 36.1778 40.7158 36.3584 41.0622 36.5211C41.5533 36.7464 42.0619 36.9827 42.5902 37.1143C43.5263 37.3506 44.504 37.4287 45.4664 37.4822C46.5449 37.5424 47.6301 37.5335 48.7174 37.5245C49.1756 37.5201 49.6382 37.5156 50.0985 37.5156C50.2914 37.5156 50.4822 37.5178 50.6751 37.5201C50.651 41.0698 50.7628 44.6174 50.7913 48.1649C49.5439 48.1783 48.2943 48.2006 47.0448 48.2296ZM46.3257 30.1574C46.3257 31.1185 45.5387 31.9212 44.5917 31.9212C43.6468 31.9212 42.8576 31.1207 42.8576 30.1574C42.8576 29.1964 43.6446 28.3937 44.5917 28.3937C45.5365 28.3937 46.3257 29.1964 46.3257 30.1574Z" fill="#6F283B" stroke="#E8F5F9" mask="url(#path-1-inside-1_94_189)"/>
</svg>
